<?xml version="1.0" encoding="utf-8"?>
<!-- Generator: Adobe Illustrator 22.1.0, SVG Export Plug-In . SVG Version: 6.00 Build 0)  -->
<svg version="1.1" id="Layer_1" xmlns="http://www.w3.org/2000/svg" xmlns:xlink="http://www.w3.org/1999/xlink" xml:space="preserve">
<style type="text/css">
	.st0{fill:#469BBC;}
	.st1{fill:#FFFFFF;}
	.st2{fill:#BCBCBB;}
	.st3{fill:#E3C22F;}
	.st4{fill:#5E6971;}
</style>
<title></title>
<g id="XMLID_2_">
	<g>
		<path class="st0" d="M67.5,22.8c-2.9-0.3-5.8-0.4-8.7-0.2l-0.3-3.2c3-0.2,6-0.2,9,0.2V22.8z"/>
		<path d="M96.8,63.4c-0.8,2.2-1.7,4.4-2.8,6.5l13.6-8.1c6.2-3.7,4.8-9.3,4-11.3c-4,1.5-8.4,1.9-12.6,1
			C98.9,55.6,98.1,59.6,96.8,63.4z M85.2,29.7c1.6,5,4.3,9.6,7.8,13.5l5.6,6.3c5.3,1.3,10.9,0.5,15.5-2.3
			c6.5-3.9,10.5-10.9,10.5-18.4c0-3.3-0.8-6.6-2.3-9.6c-2.7-5.2-7.3-9-12.9-10.6c-0.1,0-0.2-0.1-0.2-0.1
			c-11.2-3.1-22.8,3.6-25.9,14.8L85.2,29.7z M84.2,64.4c-3,5-10.3,11.5-12.6,13.5l5.9,8.2c6-4.3,11-10,14.6-16.5l-2-1.3
			c-0.3-0.2-0.5-0.5-0.5-0.8c0-0.2,0.1-0.4,0.2-0.5c0.3-0.5,0.9-0.6,1.4-0.3l1.7,1.2l0.6-1.3l-3.8-2.1c-0.5-0.3-0.7-0.9-0.4-1.4
			c0.3-0.5,0.9-0.7,1.4-0.4l3.7,2c1.1-2.7,1.9-5.6,2.4-8.5c-2.2-0.1-8,0.4-12.3,7.6C84.3,64,84.2,64.2,84.2,64.4z M79.5,67.3
			l-16.6,9.8l2,3.4c0.2-0.2,0.4-0.3,0.6-0.5l4.1-3C73.1,73.9,76.4,70.7,79.5,67.3z M61.7,17.2c2.1,0,4.3,0.1,6.4,0.4
			c3.8,0.5,7.5,1.4,11.2,2.7c0.9,0.3,1.7,0.7,2.4,1.3c1.2-3.8,3.5-7.3,6.5-10c-1.7-1.7-6.5-6.1-12-3L61.7,17.2z M64.7,84.9
			c-0.4,2.7,1.6,5.3,4.3,5.6c1.3,0.2,2.7-0.1,3.7-0.9l3.1-2.3L70,79.1l-3.3,2.4C65.6,82.3,64.9,83.6,64.7,84.9z M67.5,19.5
			c-3-0.4-6-0.4-9-0.2l0.3,3.2c2.9-0.1,5.8,0,8.7,0.2V19.5z M68.4,24.9c-3.4-0.4-6.9-0.5-10.4-0.3c-0.5,0-1-0.4-1.1-0.9l-0.4-4.2
			C51.1,20.2,45.9,21.7,41,24l4.4,9.1c2.9-1.1,12.1-4.5,17.9-4.6c2.5,0,4.5-0.5,6.2-1.1c4.2-1.6,6.1-4.7,6.8-6.1
			c-2.3-0.7-4.6-1.2-6.9-1.6v4.2c0,0.3-0.1,0.6-0.3,0.8c-0.2,0.2-0.4,0.2-0.7,0.2C68.5,24.9,68.4,24.9,68.4,24.9z M45,35.3l-4.1,1.8
			c-0.4,0.2-0.7,0.3-1.1,0.4l2.2,3.7l17.4-10.3c-4.8,1-9.5,2.4-14.1,4.2C45.2,35.2,45.1,35.3,45,35.3z M33.2,95.6
			c0-0.8-0.2-1.6-0.7-2.3l-5.2-8.8c-1.3-2.1-4-2.9-6.2-1.8L21,82.8c0,0-0.1,0-0.1,0l-3.6,2.1c-0.7,0.4-1,1.4-0.5,2.1l6.8,11.5
			c1.3,2.2,4.2,2.9,6.4,1.6l1-0.6C32.4,98.7,33.2,97.2,33.2,95.6z M34,91.8l47.9-28.4c0.1,0,0.2-0.1,0.2-0.1l0.1-0.2
			c3.1-5.5,7.1-7.6,9.9-8.4c1.5-0.4,3.1-0.6,4.6-0.5c0.2-1.2,0.2-2.3,0.2-3.5l-5.6-6.2c-3.7-4.1-6.5-9-8.2-14.2L81.1,24
			c-0.7-0.8-1.7-1.4-2.7-1.7L77.8,22c-0.7,1.4-1.6,2.8-2.8,3.9c-3,2.9-7,4.5-11.2,4.6c0,0-0.1,0.1-0.1,0.1L15,59.6l5,8.4
			c0.9,1.5,1.2,3.3,0.7,5l9-5.3L25,59.8c-0.1-0.2-0.1-0.3-0.1-0.5c0-0.4,0.2-0.7,0.5-0.9c0.5-0.3,1.1-0.1,1.4,0.3l4.7,7.9l5.6-3.3
			c0.7-0.4,1.5-0.7,2.3-0.7c2.9,0.1,4.8,2.8,4.1,5.4V68c-0.3,1.1-1,2.1-2,2.6l-2.1,1.3l2.4,4c0,0.1,0.1,0.1,0.1,0.2
			c0.2,0.5,0,1.1-0.5,1.3c-0.5,0.2-1.1,0-1.3-0.5l-2.4-4l-4.2,2.5l4.6,7.8c0.2,0.5,0.1,1-0.4,1.3c-0.5,0.3-1.1,0.2-1.4-0.3l-4.6-7.8
			l-6.7,4c1.7,0.4,3.1,1.5,4,3L34,91.8z M12.5,59.7c-1.4-1.8-4-2.3-6-1.1l-1,0.6c-2.2,1.3-2.9,4.2-1.6,6.4L10.7,77c0,0,0,0,0,0
			c0.4,0.7,1.4,1,2.1,0.5l1.6-1c0,0,0.1-0.1,0.1-0.1l2-1.2c1-0.6,1.7-1.6,2-2.7c0.1-0.4,0.1-0.8,0.1-1.2c0-0.8-0.2-1.7-0.6-2.4
			l-5.2-8.8c-0.1-0.1-0.2-0.3-0.3-0.4C12.6,59.8,12.5,59.8,12.5,59.7L12.5,59.7z M38.2,64.9L18,76.9l-0.3,0.2L14,79.2
			c-1.7,1-3.8,0.4-4.8-1.2L2.4,66.5c-0.6-1-0.9-2.2-0.9-3.4c0-0.6,0.1-1.1,0.2-1.7c0.4-1.7,1.5-3.2,3-4.1l1-0.6
			c2.7-1.6,6-1.1,8.2,1.1l26.4-15.6l-2.6-4.4c-0.7,0-1.4-0.2-2.1-0.4c-2.8-1-4.6-3.6-4.6-6.6c0-0.8,0.1-1.7,0.4-2.5
			c0.6-1.8,2-3.2,3.7-3.9l3.5-1.6c0.1-0.1,0.2-0.2,0.3-0.2c5.8-2.9,12.1-4.7,18.6-5.3L75.1,6.9c3.4-1.9,7.1-1.8,10.8,0.4
			c1.4,0.8,2.7,1.9,3.8,3.1C90.3,9.9,91,9.5,91.7,9c0.4-0.2,0.8-0.4,1.1-0.6c11.3-5.9,25.3-1.5,31.2,9.9c5.6,11,1.7,24.4-8.9,30.7
			c-0.5,0.3-1.1,0.6-1.7,0.9c0.9,2.5,2.7,9.4-4.8,13.8l-6.1,3.6c-0.2,0.1-0.4,0.2-0.7,0.3c-0.6,0.2-1.1,0.5-1.5,0.9
			c-0.3,0.1-0.5,0.3-0.7,0.4c-0.3,0.1-0.6,0.3-0.8,0.5l-6.9,4c-3.7,5.8-8.6,10.9-14.3,14.8l-3.9,2.9c-1.2,0.9-2.7,1.4-4.2,1.4
			c-3.9,0-7-3.2-7-7c0-1.2,0.3-2.4,0.9-3.4l-2.4-4L35,93.7c0.9,2.9-0.3,6.1-3,7.7l-0.9,0.6c0,0,0,0,0,0c-3.2,1.9-7.3,0.8-9.1-2.4
			L15,88c-0.3-0.5-0.4-1.2-0.4-1.8c0-1.3,0.7-2.4,1.7-3.1L20,81c0.2-0.1,0.3-0.2,0.5-0.2l20.1-12c1.1-0.6,1.4-2,0.8-3.1
			c-0.3-0.5-0.8-0.9-1.4-1.1S38.7,64.6,38.2,64.9z M33.5,32.9c0.5,1.2,1.6,2.1,2.8,2.6l0,0c1.2,0.4,2.6,0.4,3.8-0.2l3.1-1.4l-4.4-9
			l-2.9,1.3c0,0,0,0,0,0C33.4,27.4,32.3,30.4,33.5,32.9z"/>
		<path class="st1" d="M56.9,23.7c0.1,0.5,0.5,0.9,1.1,0.9c3.5-0.2,7-0.1,10.4,0.3c0,0,0.1,0,0.1,0l1.1,2.5
			c-1.7,0.6-3.7,1.1-6.2,1.1c-5.8,0.1-15.1,3.5-17.9,4.6L41,24c4.9-2.3,10.1-3.8,15.4-4.5L56.9,23.7z"/>
		<path class="st1" d="M81.9,63.5L34,91.8l-5-8.5c-0.9-1.5-2.3-2.6-4-3l6.7-4l4.6,7.8c0.3,0.5,0.9,0.6,1.4,0.3
			c0.4-0.3,0.6-0.8,0.4-1.3l-4.6-7.8l4.2-2.5l2.4,4c0.2,0.5,0.8,0.7,1.3,0.5c0.5-0.2,0.7-0.8,0.5-1.3c0-0.1-0.1-0.1-0.1-0.2l-2.4-4
			l2.1-1.3c1-0.6,1.7-1.5,2-2.6V68c0.7-2.6-1.2-5.3-4.1-5.4c-0.8,0-1.6,0.2-2.3,0.7l-5.6,3.3l-4.7-7.9c-0.3-0.5-0.9-0.6-1.4-0.3
			c-0.3,0.2-0.5,0.5-0.5,0.9c0,0.2,0,0.4,0.1,0.5l4.7,7.9l-9,5.3c0.4-1.7,0.2-3.5-0.7-5l-5-8.4l48.8-28.9c0,0,0.1-0.1,0.1-0.1
			c4.2-0.1,8.2-1.7,11.2-4.6c1.1-1.1,2.1-2.4,2.8-3.9l0.7,0.2c1,0.4,1.9,0.9,2.7,1.7l2.1,6.4c1.7,5.3,4.5,10.1,8.2,14.2l5.6,6.2
			c0,1.2-0.1,2.3-0.2,3.5c-1.6-0.1-3.1,0.1-4.6,0.5c-2.8,0.8-6.8,2.9-9.9,8.4l-0.1,0.2C82.1,63.4,82,63.4,81.9,63.5z"/>
		<path class="st1" d="M6.5,58.6c2-1.2,4.6-0.7,6,1.1v0c0,0,0.1,0.1,0.1,0.1c0,0,0.2,0.2,0.3,0.4l5.2,8.8c0.4,0.7,0.6,1.5,0.6,2.4
			c0,0.4,0,0.8-0.1,1.2c-0.3,1.1-1,2.1-2,2.7l-2,1.2c0,0-0.1,0.1-0.1,0.1l-1.6,1c-0.7,0.4-1.7,0.2-2.1-0.5c0,0,0,0,0,0L3.9,65.6
			c-1.3-2.2-0.6-5.1,1.6-6.4L6.5,58.6z"/>
		<path class="st1" d="M69.5,23.9v-4.2c2.3,0.4,4.7,0.9,6.9,1.6c-0.7,1.4-2.6,4.4-6.8,6.1l-1.1-2.5c0.2,0,0.5-0.1,0.7-0.2
			C69.4,24.5,69.5,24.2,69.5,23.9z"/>
		<path class="st1" d="M124.6,28.8c0,7.5-4,14.6-10.5,18.4c-4.7,2.7-10.3,3.6-15.5,2.3L93,43.2c-3.5-3.9-6.2-8.5-7.8-13.5l-2.1-6.3
			C86.2,12.1,97.8,5.5,109,8.6c0.1,0,0.2,0,0.2,0.1c5.6,1.6,10.3,5.4,12.9,10.6C123.8,22.1,124.6,25.4,124.6,28.8z"/>
		<path class="st2" d="M111.6,50.6c0.8,2,2.2,7.6-4,11.3L94,70c1.1-2.1,2-4.3,2.8-6.5c1.3-3.8,2-7.8,2.2-11.8
			C103.2,52.5,107.6,52.1,111.6,50.6z"/>
		<path class="st1" d="M84.3,63.8c4.2-7.2,10.1-7.7,12.3-7.6c-0.5,2.9-1.3,5.7-2.4,8.5l-3.7-2c-0.5-0.3-1.1-0.1-1.4,0.4
			c-0.3,0.5-0.1,1.1,0.4,1.4l3.8,2.1l-0.6,1.3L91,66.7c-0.5-0.3-1.1-0.2-1.4,0.3c-0.1,0.2-0.2,0.3-0.2,0.5c0,0.3,0.2,0.7,0.5,0.8
			l2,1.3c-3.5,6.5-8.5,12.2-14.6,16.5l-5.9-8.2c2.3-2,9.6-8.6,12.6-13.5C84.2,64.2,84.3,64,84.3,63.8z"/>
		<path class="st2" d="M88.1,11.6c-3,2.7-5.2,6.1-6.5,10c-0.7-0.6-1.5-1-2.4-1.3c-3.6-1.3-7.4-2.2-11.2-2.7
			c-2.1-0.3-4.2-0.4-6.4-0.4l14.4-8.6C81.6,5.6,86.4,9.9,88.1,11.6z"/>
		<path class="st2" d="M62.9,77.1l16.6-9.8c-3.1,3.4-6.4,6.7-9.9,9.7l-4.1,3c-0.2,0.2-0.4,0.3-0.6,0.5L62.9,77.1z"/>
		<path class="st1" d="M70,79.1l5.8,8.2l-3.1,2.3c-1.1,0.8-2.4,1.1-3.7,0.9c-2.7-0.4-4.7-2.9-4.3-5.6c0.2-1.3,0.9-2.6,2-3.4L70,79.1
			z"/>
		<path class="st2" d="M59.4,30.9L42,41.3l-2.2-3.7c0.4-0.1,0.8-0.2,1.1-0.4l4.1-1.8c0.1,0,0.2-0.1,0.3-0.2
			C49.9,33.3,54.6,31.9,59.4,30.9z"/>
		<path class="st1" d="M38.8,24.9l4.4,9l-3.1,1.4c-1.2,0.6-2.6,0.6-3.8,0.2l0,0C35,35,34,34.1,33.5,32.9c-1.2-2.5-0.1-5.5,2.4-6.6
			c0,0,0,0,0,0L38.8,24.9z"/>
		<path class="st1" d="M32.6,93.2c0.4,0.7,0.6,1.5,0.7,2.3c0,1.6-0.9,3.2-2.3,4l-1,0.6c-2.2,1.3-5.1,0.6-6.4-1.6L16.8,87
			c-0.4-0.7-0.2-1.7,0.5-2.1l3.6-2.1c0,0,0.1,0,0.1,0l0.2-0.1c2.2-1.1,4.9-0.4,6.2,1.8L32.6,93.2z"/>
	</g>
	<g>
	</g>
</g>
<g id="XMLID_1_">
	<g>
		<path class="st3" d="M119,28.5c0,5.3-2.7,10.2-7.2,12.9c-3.3,2-7.2,2.6-11,1.7l-0.3-0.3c-5.2-4.9-8.9-11.2-10.6-18.1
			c2.2-7.9,10.4-12.6,18.3-10.4c0,0,0.1,0,0.1,0c3.9,1.1,7.2,3.8,9.1,7.4C118.4,23.7,119,26.1,119,28.5z"/>
		<path d="M100.7,43c3.8,0.9,7.7,0.3,11-1.7c4.5-2.7,7.2-7.6,7.2-12.9c0-2.4-0.6-4.7-1.7-6.9c-1.9-3.6-5.2-6.3-9.1-7.4
			c0,0-0.1,0-0.1,0C100.1,12,92,16.7,89.8,24.6c1.8,6.9,5.4,13.2,10.6,18.1L100.7,43z M96.2,13.6c8.2-4.4,18.4-1.2,22.8,7
			c4.1,8,1.4,17.7-6.3,22.4c-3.8,2.3-8.4,3-12.8,1.8c-0.2,0-0.3-0.1-0.4-0.2L99,44.2c-5.5-5.2-9.4-12-11.3-19.4c0-0.1,0-0.2,0-0.2
			c0-0.1,0-0.2,0-0.2h0C89,19.8,92,15.9,96.2,13.6z"/>
	</g>
	<g>
	</g>
</g>
<path d="M103.8,37.2c-0.6,0-1,0.4-1,1l0,0c0,0.6,0.4,1,1,1c5.9-0.3,10.9-6.6,11.1-6.9c0.3-0.4,0.3-1.1-0.2-1.4c0,0,0,0,0,0
	c-0.4-0.3-1.1-0.2-1.4,0.2C113.4,31.2,108.8,37,103.8,37.2z"/>
<g id="XMLID_3_">
	<g>
		<path class="st0" d="M80.8,50.9c1.2,2.1,0.6,4.7-1.5,6c0,0,0,0,0,0l-11.1,6.6c-1,0.6-2.2,0.7-3.3,0.4c-1.1-0.3-2.1-1-2.7-2
			l-7.8-13.1c-1.2-2.1-0.5-4.7,1.5-5.9l4.1-2.5l4.6,7.7c0.3,0.5,0.9,0.6,1.3,0.4c0.5-0.3,0.6-0.9,0.4-1.4l-4.6-7.7l3.9-2.3l7.8,13.2
			c0.3,0.5,0.9,0.6,1.4,0.3c0.5-0.3,0.6-0.9,0.3-1.4L67.5,36c2-0.9,4.4-0.2,5.5,1.7L80.8,50.9z"/>
		<path d="M69.2,65.1c-3,1.8-6.9,0.8-8.7-2.2l-7.8-13.2C51,46.7,52,42.8,55,41L66,34.5c0,0,0,0,0,0c3-1.8,6.9-0.8,8.7,2.2l7.8,13.2
			c1.8,3,0.8,6.9-2.2,8.7L69.2,65.1z M79.3,56.9C79.3,56.8,79.3,56.8,79.3,56.9c2.1-1.3,2.8-3.9,1.5-6L73,37.7
			c-1.1-1.9-3.5-2.6-5.5-1.7l7.8,13.1c0.3,0.5,0.1,1.1-0.3,1.4c-0.5,0.3-1.1,0.1-1.4-0.3L65.8,37l-3.9,2.3l4.6,7.7
			c0.3,0.5,0.1,1.1-0.4,1.4c-0.5,0.3-1.1,0.1-1.3-0.4l-4.6-7.7L56,42.8c-2.1,1.2-2.7,3.9-1.5,5.9l7.8,13.1c0.6,1,1.5,1.7,2.7,2
			c1.1,0.3,2.3,0.2,3.3-0.4L79.3,56.9z"/>
	</g>
	<g>
	</g>
</g>
<path d="M87.7,46.6c0.4-0.3,0.5-1,0.1-1.4c0,0,0,0,0,0c-5.5-6.7-6.5-12-6.5-12c0-0.6-0.5-1-1.1-0.9s-1,0.5-0.9,1.1v0.2
	c0,0.2,1,5.8,6.9,13C86.6,46.9,87.2,46.9,87.7,46.6C87.6,46.6,87.7,46.6,87.7,46.6z"/>
<path d="M69.2,55.6c-0.9-1.5-2.9-2-4.4-1.1c-0.7,0.4-1.3,1.2-1.5,2c-0.1,0.3-0.1,0.5-0.1,0.8c0,0.6,0.2,1.1,0.4,1.6
	c0.4,0.7,1.1,1.3,2,1.5c0.8,0.2,1.7,0.1,2.4-0.4C69.6,59.1,70.1,57.1,69.2,55.6z M66.2,58.4c-0.3-0.1-0.6-0.3-0.7-0.5
	c-0.2-0.3-0.2-0.6-0.1-0.9c0.2-0.6,0.8-1,1.4-0.9c0.3,0.1,0.6,0.3,0.7,0.6c0.1,0.2,0.2,0.4,0.2,0.6c0,0.7-0.5,1.2-1.2,1.2
	C66.3,58.4,66.2,58.4,66.2,58.4z"/>
<path d="M46.8,108.4c0,0.5,0.3,0.9,0.7,1c3.3,1,6,3.7,7,7c0.1,0.4,0.5,0.7,1,0.7c0.5,0,0.9-0.3,1-0.7c1-3.3,3.7-6,7-7
	c0.4-0.1,0.7-0.5,0.7-1c0-0.5-0.3-0.9-0.7-1c-3.3-1-6-3.7-7-7c-0.1-0.4-0.5-0.7-1-0.7c-0.5,0-0.9,0.3-1,0.7c-1,3.3-3.7,6-7,7
	C47.1,107.5,46.8,107.9,46.8,108.4z"/>
<g id="XMLID_5_">
	<g>
		<path class="st4" d="M55.5,103.3c1.2,2.2,2.9,3.9,5.1,5.1c-2.2,1.2-3.9,2.9-5.1,5.1c-1.2-2.2-3-4-5.1-5.1
			C52.5,107.2,54.3,105.4,55.5,103.3z"/>
	</g>
	<g>
	</g>
</g>
<g id="XMLID_6_">
	<g>
		<path class="st3" d="M73,114.7c0.6,0.9,1.3,1.6,2.2,2.2c-0.9,0.6-1.6,1.3-2.2,2.2c-0.6-0.9-1.4-1.6-2.3-2.2v-0.1
			C71.7,116.3,72.4,115.6,73,114.7z"/>
		<path d="M75.3,116.9c-0.9-0.6-1.6-1.4-2.2-2.2c-0.6,0.9-1.4,1.6-2.3,2.2v0.1c0.9,0.6,1.7,1.3,2.3,2.2
			C73.6,118.3,74.4,117.5,75.3,116.9z M77.8,117.9c-1.8,0.6-3.2,2.1-3.8,3.9c-0.1,0.4-0.6,0.7-1,0.7c-0.5,0-0.9-0.3-1-0.7
			c-0.6-1.8-2.1-3.2-3.9-3.8c-0.4-0.1-0.7-0.5-0.7-1c0-0.5,0.3-0.9,0.7-1c1.9-0.6,3.3-2.1,3.8-4c0.1-0.4,0.6-0.7,1-0.7
			c0.5,0,0.9,0.3,1,0.7c0.6,1.8,2,3.3,3.9,3.9c0.4,0.1,0.7,0.5,0.7,1C78.6,117.3,78.3,117.8,77.8,117.9z"/>
	</g>
	<g>
	</g>
</g>
<path d="M10.8,15.3c-0.5,0.2-0.8,0.7-0.7,1.3c0.1,0.3,0.3,0.6,0.7,0.7c1.7,0.5,3.1,1.9,3.6,3.6c0.1,0.4,0.5,0.7,1,0.7
	c0.5,0,0.9-0.3,1-0.7c0.5-1.7,1.9-3.1,3.6-3.6c0.5-0.2,0.8-0.7,0.7-1.3c-0.1-0.3-0.3-0.6-0.7-0.7c-1.7-0.5-3.1-1.9-3.6-3.6
	c-0.1-0.4-0.5-0.7-1-0.7c-0.5,0-0.9,0.3-1,0.7C13.9,13.4,12.5,14.8,10.8,15.3z"/>
<g id="XMLID_4_">
	<g>
		<path class="st0" d="M17.4,16.3L17.4,16.3c-0.8,0.6-1.5,1.2-2,2c-0.5-0.8-1.2-1.5-2-2c0.8-0.5,1.5-1.2,2-2
			C15.9,15.1,16.6,15.7,17.4,16.3z"/>
	</g>
	<g>
	</g>
</g>
</svg>
