<?xml version="1.0" encoding="utf-8"?>
<!-- Generator: Adobe Illustrator 22.1.0, SVG Export Plug-In . SVG Version: 6.00 Build 0)  -->
<svg version="1.1" id="Layer_1" xmlns="http://www.w3.org/2000/svg" xmlns:xlink="http://www.w3.org/1999/xlink" x="0px" y="0px"
	 viewBox="0 0 128 128" style="enable-background:new 0 0 128 128;" xml:space="preserve">
<style type="text/css">
	.st0{fill:#9B816D;}
	.st1{fill:#EA424F;}
	.st2{fill:#469BBC;}
	.st3{fill:#FAA916;}
</style>
<title></title>
<g id="XMLID_1_">
	<g>
		<path class="st0" d="M52.6,77.2c0.3-0.5,0.1-1.1-0.4-1.4c-2.9-1.8-6.7-0.8-8.5,2.1c-1.8,2.9-0.8,6.7,2.1,8.5
			c0.1,0.1,0.2,0.1,0.3,0.2h0c0.9,0.5,2,0.8,3,0.8c0.8,0,1.5-0.1,2.2-0.4c0.5-0.2,0.8-0.8,0.6-1.3c0,0,0,0,0,0
			c-0.2-0.5-0.8-0.8-1.3-0.6c-0.5,0.2-1,0.3-1.5,0.3c-1.7,0-3.2-1-3.9-2.7c-0.8-2.1,0.2-4.6,2.4-5.4c1.2-0.4,2.5-0.4,3.5,0.3
			C51.8,77.9,52.4,77.7,52.6,77.2z M38.3,67.8c12.3,0,22.2,10,22.2,22.2c0,12.3-10,22.2-22.2,22.2c-12.3,0-22.2-10-22.2-22.2
			c0-5.9,2.4-11.6,6.5-15.7C26.7,70.2,32.4,67.8,38.3,67.8z M47.4,99.9c0-3.4-2.7-6.2-6.1-6.2c-0.2,0-0.4,0-0.6,0
			c-0.6,0.1-1,0.5-0.9,1.1c0,0.6,0.5,1,1.1,0.9c2.3-0.2,4.3,1.5,4.5,3.7c0.2,2.3-1.5,4.3-3.7,4.5c-1.2,0.1-2.5-0.3-3.4-1.2
			c-0.4-0.4-1-0.3-1.4,0.1c-0.3,0.4-0.3,0.9,0,1.3c1.2,1.2,2.7,1.8,4.4,1.8C44.6,106,47.4,103.3,47.4,99.9z M27.3,89.7
			c1.8-1.8,1.8-4.7,0-6.5s-4.7-1.8-6.5,0c-0.4,0.4-0.4,1,0,1.4c0,0,0,0,0,0c0.4,0.4,1,0.4,1.4,0c1-1,2.6-1,3.6,0s1,2.6,0,3.6
			s-2.6,1-3.6,0c-0.2-0.2-0.4-0.2-0.7-0.2c-0.3,0-0.6,0.1-0.8,0.3c-0.3,0.4-0.3,0.9,0,1.3C22.7,91.5,25.5,91.5,27.3,89.7z"/>
		<circle class="st1" cx="37.5" cy="8.5" r="1"/>
		<circle class="st2" cx="119.1" cy="74.7" r="3"/>
		<circle class="st2" cx="36.6" cy="27.7" r="1"/>
		<circle class="st3" cx="100.5" cy="92.9" r="1"/>
		<path class="st3" d="M27.2,29.1c0.5,0.5,0.9,1.3,0.9,2.1c0,1.7-1.3,3-3,3c-1.7,0-3-1.3-3-3c0-1.7,1.3-3,3-3
			C26,28.2,26.7,28.5,27.2,29.1z"/>
		<path d="M121,41.6C121,41.6,121,41.6,121,41.6c-0.4,0.4-1,0.4-1.4,0s-0.4-1,0-1.4l2.1-2.1c0.4-0.4,1-0.4,1.4,0
			c0.4,0.4,0.4,1,0,1.4L121,41.6z"/>
		<path d="M122.1,74.7c0-1.7-1.3-3-3-3c-1.7,0-3,1.3-3,3c0,1.7,1.3,3,3,3C120.8,77.7,122.1,76.3,122.1,74.7z M119.1,69.7
			c2.8,0,5,2.2,5,5c0,2.8-2.2,5-5,5c-2.8,0-5-2.2-5-5C114.1,71.9,116.4,69.7,119.1,69.7z"/>
		<path d="M101.5,92.9c0-0.6-0.4-1-1-1c-0.5,0-1,0.4-1,1s0.5,1,1,1C101,93.9,101.5,93.4,101.5,92.9z M100.5,89.9c1.7,0,3,1.3,3,3
			c0,1.7-1.3,3-3,3c-1.7,0-3-1.3-3-3C97.5,91.2,98.8,89.9,100.5,89.9z"/>
		<path d="M76.9,5.3C76.9,5.3,76.9,5.3,76.9,5.3c0.4,0.4,0.4,1,0,1.4l-5.5,5.6h0c-0.4,0.4-1,0.4-1.4,0c-0.4-0.4-0.4-1,0-1.4l5.5-5.6
			C75.9,4.9,76.5,4.9,76.9,5.3z"/>
		<path d="M112.4,50.2l-42,42c-0.4,0.4-1,0.4-1.4,0c-0.4-0.4-0.4-1,0-1.4l42-42c0.4-0.4,1-0.4,1.4,0c0,0,0,0,0,0
			C112.8,49.2,112.8,49.8,112.4,50.2z"/>
		<path d="M87.4,57.9C87.4,57.9,87.4,57.9,87.4,57.9c0.4,0.4,0.4,1,0,1.4L68.6,78.2c-0.4,0.4-1,0.4-1.4,0c-0.4-0.4-0.4-1,0-1.4
			L86,57.9c0,0,0,0,0,0C86.4,57.5,87,57.5,87.4,57.9z"/>
		<path d="M108.7,18.2C108.7,18.2,108.7,18.2,108.7,18.2c0.4-0.4,1-0.4,1.4,0s0.4,1,0,1.4l-3.4,3.4L64.5,65.2c-0.4,0.4-1,0.4-1.4,0
			c-0.4-0.4-0.4-1,0-1.4L103,23.9L108.7,18.2z"/>
		<path d="M88.6,22.4c0.4,0.4,0.4,1,0,1.4L51.4,61c-0.4,0.4-1,0.4-1.4,0c-0.4-0.4-0.4-1,0-1.4l37.2-37.2C87.6,22,88.2,22,88.6,22.4z
			"/>
		<path d="M45.3,82.7c0.6,1.7,2.2,2.7,3.9,2.7c0.5,0,1-0.1,1.5-0.3c0.5-0.2,1.1,0.1,1.3,0.6c0,0,0,0,0,0c0.2,0.5-0.1,1.1-0.6,1.3
			c-0.7,0.3-1.5,0.4-2.2,0.4c-1,0-2.1-0.3-3-0.8h0c-0.1-0.1-0.2-0.1-0.3-0.2c-2.9-1.8-3.8-5.6-2.1-8.5c1.8-2.9,5.5-3.8,8.5-2.1
			c0.5,0.3,0.6,0.9,0.4,1.4c-0.3,0.5-0.9,0.7-1.4,0.4c-1.1-0.6-2.4-0.7-3.5-0.3C45.6,78.2,44.5,80.6,45.3,82.7z"/>
		<path d="M41.7,104c2.3-0.2,4-2.3,3.7-4.5c-0.2-2.3-2.2-4-4.5-3.7c-0.5,0.1-1-0.3-1.1-0.9c-0.1-0.6,0.3-1,0.9-1.1
			c0.2,0,0.4,0,0.6,0c3.4,0,6.2,2.8,6.1,6.2c0,3.4-2.8,6.2-6.2,6.1c-1.6,0-3.2-0.6-4.4-1.8c-0.3-0.4-0.3-0.9,0-1.3
			c0.4-0.4,1-0.5,1.4-0.1C39.2,103.7,40.4,104.1,41.7,104z"/>
		<path d="M36.7,60.2c-0.4,0.4-1,0.4-1.4,0c0,0,0,0,0,0c-0.4-0.4-0.4-1,0-1.4L90.2,3.8c0.4-0.4,1-0.4,1.4,0s0.4,1,0,1.4L36.7,60.2
			C36.7,60.1,36.7,60.1,36.7,60.2z"/>
		<path d="M37.5,9.5c0.5,0,1-0.4,1-1s-0.5-1-1-1s-1,0.4-1,1S36.9,9.5,37.5,9.5z M34.5,8.5c0-1.7,1.3-3,3-3s3,1.3,3,3s-1.3,3-3,3
			S34.5,10.2,34.5,8.5z"/>
		<path d="M33.6,27.7c0-1.7,1.3-3,3-3s3,1.3,3,3s-1.3,3-3,3S33.6,29.4,33.6,27.7z M35.6,27.7c0,0.5,0.5,1,1,1s1-0.5,1-1
			c0-0.6-0.5-1-1-1S35.6,27.1,35.6,27.7z"/>
		<path d="M27.3,83.3c1.8,1.8,1.8,4.7,0,6.5c-1.8,1.8-4.7,1.8-6.5,0c-0.3-0.4-0.3-0.9,0-1.3c0.2-0.2,0.5-0.3,0.8-0.3
			c0.2,0,0.5,0.1,0.7,0.2c1,1,2.6,1,3.6,0s1-2.6,0-3.6s-2.6-1-3.6,0c-0.4,0.4-1,0.4-1.4,0c0,0,0,0,0,0c-0.4-0.4-0.4-1,0-1.4
			C22.7,81.5,25.5,81.5,27.3,83.3z"/>
		<path d="M28.1,31.2c0-0.8-0.3-1.6-0.9-2.1c-0.5-0.5-1.3-0.9-2.1-0.9c-1.7,0-3,1.3-3,3c0,1.7,1.3,3,3,3
			C26.8,34.2,28.1,32.8,28.1,31.2z M25.1,26.2c2.8,0,5,2.2,5,5s-2.2,5-5,5s-5-2.2-5-5S22.4,26.2,25.1,26.2z"/>
		<path d="M21.1,72.9c9.5-9.5,24.8-9.5,34.3,0s9.5,24.8,0,34.3c-9.5,9.5-24.8,9.5-34.3,0c0,0-0.1-0.1-0.1-0.1c-4.7-4.7-7-10.9-7-17
			C14,83.9,16.4,77.7,21.1,72.9z M16,90.1c0,12.3,9.9,22.2,22.2,22.2c12.3,0,22.2-9.9,22.2-22.2c0-12.3-10-22.2-22.2-22.2
			c-5.9,0-11.6,2.3-15.7,6.5C18.4,78.5,16,84.2,16,90.1z"/>
		<path d="M108,65C108,65,108,65,108,65c0.4-0.4,1-0.4,1.4,0c0,0,0,0,0,0c0.4,0.4,0.4,1,0,1.4l-48.2,48.2c-0.1,0.1-0.3,0.3-0.4,0.4
			c-13.2,13-34.5,12.8-47.5-0.4c-13-13.2-12.8-34.5,0.4-47.5l46.5-46.5c0,0,0,0,0,0c0.4-0.4,1-0.4,1.4,0s0.4,1,0,1.4L15.1,68.5
			c-0.2,0.2-0.4,0.4-0.5,0.5c-12.2,12.5-11.9,32.5,0.5,44.7c12.5,12.2,32.5,12,44.7-0.5L108,65z"/>
	</g>
	<g>
	</g>
</g>
</svg>
