<?xml version="1.0" encoding="utf-8"?>
<!-- Generator: Adobe Illustrator 22.1.0, SVG Export Plug-In . SVG Version: 6.00 Build 0)  -->
<svg version="1.1" id="Layer_1" xmlns="http://www.w3.org/2000/svg" xmlns:xlink="http://www.w3.org/1999/xlink" x="0px" y="0px"
	 viewBox="0 0 128 128" style="enable-background:new 0 0 128 128;" xml:space="preserve">
<style type="text/css">
	.st0{fill:#E2E2E2;}
	.st1{fill:#A09D9D;}
	.st2{fill:#F73959;}
	.st3{display:none;fill:none;}
</style>
<title></title>
<g id="XMLID_3_">
	<g>
		<path class="st0" d="M124.4,111.1c1.5,4.1,2.5,8.4,3,12.8c-3.1-0.3-21.8-0.4-42.1-0.5l0,0c-6.6-0.5-59.7-0.6-85-0.3
			c0.5-3.8,1.4-7.5,2.6-11.1c8.3-24.1,32.4-41.5,60.9-41.5C92,70.5,115.8,87.5,124.4,111.1z"/>
	</g>
</g>
<g id="XMLID_1_">
	<g>
		<path class="st1" d="M24.6,94.5c1.7,1.8,3,3.4,1.3,5.7c-0.6,0.8-1.5,1.2-2.4,1.1c-1-0.1-2-0.6-2.4-1.5c-1.6-2.9-5.8-2.3-8.6-1.5
			c2.4-3.2,5.1-6.2,8-8.9l0,0c0.1,0,0.1,0,0.2-0.1c0.7-0.4,1.6-0.4,2.2,0.1c0.6,0.4,0.9,1.1,0.8,1.8c-0.3,0.8-0.1,1.7,0.3,2.4
			C24.1,93.9,24.4,94.2,24.6,94.5z"/>
		<path d="M59.3,71.4c0,0.5-0.4,1-0.9,1.1c-13,1.1-25.4,6.2-35.5,14.6c0.4,0.1,0.8,0.3,1.1,0.6c1.2,0.9,1.8,2.3,1.5,3.8
			c-0.1,0.3-0.1,0.6-0.1,0.9c0.2,0.2,0.4,0.4,0.6,0.6c1.4,1.5,4.4,4.5,1.5,8.3c-0.9,1.2-2.3,1.9-3.8,1.9h-0.4
			c-1.7-0.1-3.2-1.1-4-2.6s-3.5-1.5-8.1,0c-0.2,0-0.4,0-0.5,0c-2.4,3.6-4.4,7.4-6.1,11.5c-0.1,0.4-0.5,0.6-0.9,0.6
			c-0.1,0-0.2,0-0.4-0.1c-0.5-0.2-0.8-0.8-0.6-1.3C12,88.4,33.4,72.6,58,70.5l0,0C58.7,70.5,59.2,70.9,59.3,71.4z M26,100.2
			c1.7-2.2,0.4-3.9-1.3-5.7c-0.3-0.3-0.5-0.5-0.8-0.8c-0.5-0.7-0.6-1.6-0.3-2.4c0.1-0.7-0.2-1.4-0.8-1.8c-0.6-0.5-1.5-0.5-2.2-0.1
			c-0.1,0-0.1,0.1-0.2,0.1l0,0c-2.9,2.7-5.6,5.7-8,8.9c2.9-0.8,7-1.4,8.6,1.5c0.5,0.9,1.4,1.5,2.4,1.5
			C24.5,101.3,25.4,100.9,26,100.2z"/>
	</g>
</g>
<g id="XMLID_2_">
	<g>
		<path d="M125.2,111.4c0.2,0.5,0,1.1-0.6,1.3c-0.1,0.1-0.2,0.1-0.4,0.1c-0.4,0-0.8-0.2-0.9-0.6c-9.4-22.8-31-38.3-55.7-39.7
			c-0.9-0.1-1.7-0.1-2.6-0.1v3.2c0,0.5-0.4,1-1,1c-0.5,0-1-0.5-1-1v-54c-1.1-0.3-2-1.2-2.3-2.3c-0.5-1.8,0.5-3.7,2.3-4.3
			c1.8-0.6,3.8,0.5,4.3,2.3s-0.5,3.8-2.3,4.3v3.2h14.7c1.6,0,2.9,1.3,2.9,2.9v1.1h4.6c2.2,0,3.9,1.8,3.9,3.9v14.9c0,0.5-0.4,1-1,1
			H77.4c-1.3,0-2.5-0.8-3-1.9l-1-2.1H65v25.8c0.9,0,1.8,0.1,2.7,0.1C93.2,71.9,115.5,87.8,125.2,111.4z M89.1,46.6v-6.9h-1.5
			c-0.5,0-1-0.4-1-1c0-0.5,0.5-1,1-1h1.5v-5c0-1.1-0.9-1.9-1.9-1.9h-4.6v12.8c0,0.5-0.5,1-1,1h-5.9l0.6,1.2c0.2,0.5,0.7,0.8,1.2,0.8
			H89.1z M80.5,42.6v-6.9c-0.1,0-0.2,0-0.3,0h-7.4c-0.6,0-1-0.5-1-1s0.4-1,1-1h7.4c0.1,0,0.2,0,0.3,0v-6.1c0-0.5-0.4-0.9-0.9-0.9
			H64.9v15.9H80.5z M65.4,18.2c0-0.8-0.6-1.4-1.4-1.4c-0.8,0-1.5,0.6-1.5,1.4s0.7,1.5,1.5,1.5C64.8,19.7,65.4,19,65.4,18.2z"/>
		<path class="st2" d="M89.1,39.7v6.9H77.4c-0.5,0-1-0.3-1.2-0.8l-0.6-1.2h5.9c0.5,0,1-0.5,1-1V30.7h4.6c1.1,0,1.9,0.9,1.9,1.9v5
			h-1.5c-0.5,0-1,0.5-1,1c0,0.6,0.5,1,1,1L89.1,39.7L89.1,39.7z"/>
		<path class="st2" d="M80.5,35.7v6.9H65V26.8h14.7c0.5,0,0.9,0.4,0.9,0.9v6.1c-0.1,0-0.2,0-0.3,0h-7.4c-0.6,0-1,0.5-1,1s0.4,1,1,1
			h7.4C80.4,35.7,80.4,35.7,80.5,35.7z"/>
	</g>
</g>
<path d="M22.2,41.8h4.4c0.6,0,1-0.4,1-1s-0.4-1-1-1h-4.4c-0.6,0-1,0.4-1,1S21.7,41.8,22.2,41.8z"/>
<path d="M33.1,41.8h4.3c0.6,0,1-0.4,1-1s-0.4-1-1-1h-4.3c-0.6,0-1,0.4-1,1S32.6,41.8,33.1,41.8z"/>
<path d="M29.8,49.4c0.6,0,1-0.4,1-1v-4.3c0-0.6-0.4-1-1-1s-1,0.4-1,1v4.3C28.8,49,29.3,49.4,29.8,49.4z"/>
<path d="M29.8,38.5c0.6,0,1-0.4,1-1v-4.4c0-0.6-0.4-1-1-1s-1,0.4-1,1v4.3C28.8,38.1,29.3,38.5,29.8,38.5L29.8,38.5z"/>
<path d="M104.9,67.7h3.3c0.6,0,1-0.4,1-1s-0.4-1-1-1h-3.3c-0.6,0-1,0.4-1,1S104.4,67.7,104.9,67.7z"/>
<path d="M113.1,67.7h3.3c0.6,0,1-0.4,1-1s-0.4-1-1-1h-3.3c-0.6,0-1,0.4-1,1S112.5,67.7,113.1,67.7z"/>
<path d="M110.7,73.4c0.6,0,1-0.4,1-1v-3.3c0-0.6-0.4-1-1-1s-1,0.4-1,1v3.3C109.6,72.9,110.1,73.4,110.7,73.4L110.7,73.4z"/>
<path d="M110.7,65.2c0.6,0,1-0.4,1-1v-3.3c0-0.6-0.4-1-1-1s-1,0.4-1,1v3.3C109.7,64.8,110.1,65.2,110.7,65.2z"/>
<path d="M47.1,96.1c1.8-1.2,3.1-3.1,3.5-5.2c0.1-0.6-0.3-1.1-0.8-1.2c-0.6-0.1-1.1,0.3-1.2,0.8c-0.7,3.3-3.9,5.5-7.2,4.8
	c-0.5-0.1-1.1,0.2-1.2,0.8l0,0c-0.1,0.5,0.3,1.1,0.8,1.2l0,0c0.5,0.1,1.1,0.2,1.6,0.2C44.2,97.5,45.8,97,47.1,96.1z"/>
<g id="XMLID_5_">
	<g>
		<path d="M41.5,83.9c2.3,0,4.2,1.9,4.2,4.2c0,2.3-1.9,4.2-4.2,4.2c-0.3,0-0.5,0-0.8-0.1c-2-0.4-3.4-2.1-3.4-4.2
			C37.3,85.8,39.2,83.9,41.5,83.9z M43.7,88.7c0.1-0.6,0-1.2-0.3-1.7s-0.8-0.9-1.4-1c-0.2,0-0.3,0-0.5,0c-0.4,0-0.9,0.1-1.2,0.4
			c-0.5,0.3-0.8,0.8-0.9,1.4c-0.1,0.6,0,1.2,0.4,1.7c0.3,0.5,0.8,0.8,1.4,0.9C42.3,90.6,43.5,89.9,43.7,88.7z"/>
		<path class="st1" d="M43.4,87c0.3,0.5,0.5,1.1,0.3,1.7c-0.2,1.2-1.4,2-2.6,1.7c-0.6-0.1-1.1-0.5-1.4-0.9c-0.3-0.5-0.5-1.1-0.4-1.7
			s0.5-1.1,0.9-1.4c0.4-0.2,0.8-0.4,1.2-0.4c0.2,0,0.3,0,0.5,0C42.6,86.1,43.1,86.5,43.4,87z"/>
	</g>
</g>
<path d="M75.2,111.9c0.5,0.1,1.1-0.2,1.2-0.7c1.5-5.3,6.9-8.4,12.2-6.9c3.6,1,6.3,3.9,7.1,7.6c0.1,0.5,0.5,0.8,1,0.8
	c0.1,0,0.1,0,0.2,0c0.5-0.1,0.9-0.6,0.8-1.2c-1.3-6.4-7.6-10.6-14.1-9.3c-4.4,0.9-7.9,4.2-9.1,8.5C74.3,111.2,74.6,111.7,75.2,111.9
	z"/>
<path d="M51,78.9c1.8-0.6,3.7-1,5.7-1.2c0.5,0,1-0.5,0.9-1.1c0-0.5-0.5-1-1.1-0.9c-2.1,0.2-4.1,0.6-6.1,1.3
	c-0.5,0.2-0.8,0.7-0.6,1.3c0.1,0.4,0.6,0.7,1,0.7C50.8,78.9,50.9,78.9,51,78.9z"/>
<path d="M75.2,83.9c-0.4-0.4-1-0.4-1.4,0L68,89.7c-0.4,0.4-0.4,1,0,1.4l0,0c0.2,0.2,0.4,0.3,0.7,0.3c0.3,0,0.5-0.1,0.7-0.3l5.8-5.8
	C75.6,84.9,75.6,84.3,75.2,83.9L75.2,83.9z"/>
<path d="M71.3,96.1c0.3,0,0.5-0.1,0.7-0.3l3.7-3.7c0.4-0.4,0.4-1,0-1.4l0,0c-0.4-0.4-1-0.4-1.4,0l-3.7,3.7c-0.4,0.4-0.4,1,0,1.4
	C70.8,96,71.1,96.1,71.3,96.1z"/>
<path d="M35.4,112.9c0.4,0.4,1,0.4,1.4,0l0,0c0.4-0.4,0.4-1,0-1.4l-5.8-5.9c-0.4-0.4-1-0.4-1.4,0l0,0c-0.4,0.4-0.4,1,0,1.4
	L35.4,112.9z"/>
<path d="M40.7,111.6c0.6,0,1-0.5,1-1c0-0.3-0.1-0.5-0.3-0.7l-3.7-3.7c-0.4-0.4-1-0.4-1.4,0s-0.4,1,0,1.4l0,0l3.6,3.7
	C40.2,111.5,40.5,111.6,40.7,111.6z"/>
<path d="M116.7,112.8c0.1,0,0.2,0,0.2,0c0.5-0.1,0.9-0.7,0.7-1.2c-0.8-3.2-6.4-11.4-6.7-11.8c-0.3-0.5-0.9-0.6-1.4-0.2
	c-0.4,0.3-0.6,0.9-0.3,1.4c1.6,2.3,5.8,8.8,6.4,11.1C115.9,112.5,116.3,112.8,116.7,112.8z"/>
<g id="XMLID_4_">
	<g>
		<path d="M96.1,85.9c4.7,3.1,9,7.6,7.4,10.1c-0.3,0.4-0.7,0.7-1.2,0.8c-0.2,0-0.3,0-0.4,0c-1.5,0-3.6-1.4-7.2-3.8
			c-0.8-0.6-1.7-1.1-2.6-1.7s-1.8-1.2-2.6-1.7c-3.4-2.2-5.5-3.5-5.8-5c-0.1-0.5,0-1.1,0.3-1.5C85.5,80.6,91.4,82.9,96.1,85.9z
			 M101.8,94.9c0.2-0.7-1.7-3.9-6.8-7.3c-4.1-2.7-7.2-3.6-8.6-3.6c-0.4,0-0.7,0.1-0.7,0.2c0.1,0.6,2.8,2.3,4.9,3.7
			c0.8,0.5,1.7,1.1,2.6,1.7s1.8,1.2,2.6,1.7C97.9,92.9,100.9,94.9,101.8,94.9z"/>
		<path class="st1" d="M94.9,87.6c5.1,3.4,7.1,6.6,6.8,7.3c-0.8,0.1-3.9-2-6.1-3.5c-0.8-0.6-1.7-1.2-2.6-1.7
			c-0.9-0.6-1.8-1.2-2.6-1.7c-2.2-1.4-4.8-3.1-4.9-3.7c0.1-0.1,0.3-0.2,0.7-0.2C87.7,84,90.9,84.9,94.9,87.6z"/>
	</g>
</g>
<rect x="45.2" y="190.3" class="st3" width="147.1" height="80.9"/>
<circle class="st1" cx="86" cy="113.2" r="9.6"/>
</svg>
