<?xml version="1.0" encoding="utf-8"?>
<!-- Generator: Adobe Illustrator 22.1.0, SVG Export Plug-In . SVG Version: 6.00 Build 0)  -->
<svg version="1.1" id="Layer_1" xmlns="http://www.w3.org/2000/svg" xmlns:xlink="http://www.w3.org/1999/xlink" x="0px" y="0px"
	 viewBox="0 0 128 128" style="enable-background:new 0 0 128 128;" xml:space="preserve">
<style type="text/css">
	.st0{fill:#D0CCD0;}
	.st1{fill:#E3C22F;}
	.st2{fill:#1C6E8C;}
	.st3{fill:#5E6971;}
	.st4{fill:#469BBC;}
</style>
<title></title>
<g id="XMLID_1_">
	<g>
		<path class="st0" d="M101.6,33.5c0.5,0.8,1.2,1.4,1.9,1.9c-0.8,0.5-1.4,1.2-1.9,1.9c-0.5-0.7-1.2-1.4-1.9-1.9
			C100.5,34.9,101.1,34.2,101.6,33.5L101.6,33.5z"/>
		<path class="st1" d="M117.4,87.5c0.8,1.4,2,2.6,3.4,3.4c-1.4,0.8-2.6,2-3.4,3.4c-0.8-1.4-2-2.6-3.4-3.4
			C115.4,90.1,116.6,88.9,117.4,87.5z"/>
		<path class="st1" d="M26.4,23.6c0.9,1.6,2.3,3,3.9,3.9c-1.6,0.9-3,2.3-3.9,3.9c-0.9-1.6-2.3-3-3.9-3.9
			C24.1,26.6,25.4,25.2,26.4,23.6z"/>
		<path class="st2" d="M32.1,86.1c-0.7,0.5-1.4,1.2-1.9,1.9l0,0c-0.5-0.8-1.1-1.4-1.9-1.9c0.8-0.5,1.4-1.1,1.9-1.9
			C30.7,84.9,31.4,85.6,32.1,86.1z"/>
		<path class="st3" d="M116,13c0.8,1.2,1.8,2.3,3,3.1c-1.3,0.8-2.3,1.8-3.1,3.1c-0.8-1.2-1.8-2.3-3.1-3.1
			C114.1,15.3,115.1,14.2,116,13L116,13z"/>
		<path class="st4" d="M10.8,32.8c-0.7,0.5-1.4,1.2-1.9,1.9h0C8.4,34,7.7,33.3,7,32.8c0.8-0.5,1.4-1.1,1.9-1.9
			C9.4,31.7,10.1,32.3,10.8,32.8z"/>
		<path d="M120.8,90.9c-1.4-0.8-2.6-2-3.4-3.4c-0.8,1.4-2,2.6-3.4,3.4c1.4,0.8,2.6,2,3.4,3.4C118.2,92.9,119.4,91.7,120.8,90.9z
			 M118.4,84.8c0.8,2.5,2.7,4.4,5.2,5.2c0.4,0.1,0.8,0.5,0.8,0.9c0,0.4-0.3,0.8-0.7,0.9c-2.5,0.8-4.4,2.7-5.2,5.2
			c-0.1,0.4-0.5,0.7-1,0.7c-0.5,0-0.9-0.3-1-0.7c-0.8-2.5-2.8-4.4-5.3-5.1c-0.4-0.1-0.7-0.5-0.7-0.9c0-0.5,0.3-0.9,0.7-1
			c2.5-0.8,4.4-2.7,5.2-5.2c0.1-0.4,0.5-0.7,1-0.7C117.8,84,118.2,84.3,118.4,84.8z"/>
		<path d="M119.6,105.9c0.4,0.4,0.4,1,0,1.4c-1.2,1.2-2.4,2.3-3.7,3.4c-0.4,0.4-1.1,0.3-1.4-0.1s-0.3-1.1,0.1-1.4
			c1.2-1,2.4-2.2,3.6-3.3c0,0,0,0,0,0C118.6,105.5,119.2,105.5,119.6,105.9z"/>
		<path d="M115.9,19.1c0.8-1.3,1.8-2.3,3.1-3.1c-1.2-0.8-2.2-1.8-3-3.1l-0.1,0c-0.8,1.2-1.8,2.3-3.1,3.1
			C114.1,16.8,115.1,17.9,115.9,19.1z M110,15.1c2.3-0.7,4.1-2.5,4.8-4.8c0.1-0.4,0.5-0.7,1-0.7c0.4,0,0.9,0.3,1,0.7
			c0.7,2.3,2.5,4.1,4.8,4.8c0.3,0.1,0.6,0.3,0.7,0.7c0.2,0.5-0.1,1.1-0.7,1.2c-2.3,0.8-4,2.6-4.7,4.9c-0.1,0.4-0.5,0.7-1,0.7
			c-0.5,0-0.9-0.3-1-0.7c-0.7-2.4-2.6-4.2-5-4.9c-0.3-0.1-0.6-0.3-0.7-0.7C109.2,15.8,109.5,15.2,110,15.1z"/>
		<path d="M101.6,33.5c-0.5,0.7-1.1,1.4-1.9,1.9c0.7,0.5,1.4,1.2,1.9,1.9c0.5-0.8,1.2-1.4,1.9-1.9C102.8,34.9,102.1,34.2,101.6,33.5
			L101.6,33.5z M100.6,39.9c-0.5-1.7-1.8-3-3.5-3.5c-0.4-0.1-0.7-0.5-0.7-1c0-0.5,0.3-0.9,0.7-1c1.7-0.5,3-1.8,3.5-3.5
			c0.1-0.4,0.6-0.7,1-0.7c0.5,0,0.9,0.3,1,0.7c0.5,1.7,1.8,3,3.5,3.5c0.4,0.1,0.7,0.6,0.7,1c0,0.5-0.3,0.9-0.7,1
			c-1.7,0.5-3,1.8-3.5,3.5c-0.1,0.4-0.5,0.7-1,0.7C101.2,40.6,100.8,40.3,100.6,39.9z"/>
		<path d="M100.7,90.2c18.8-18.8,18.8-49.3,0-68.1C83.5,4.8,57.4-0.4,34.9,9c-0.1,0-0.1,0.1-0.2,0.1c-0.5,0.1-1.1-0.2-1.2-0.7
			c-0.2-0.5,0.2-1.1,0.7-1.2c23.3-9.7,50.2-4.4,68,13.5c19.5,19.6,19.5,51.3,0,70.9c-15.7,15.7-41.3,15.7-57,0
			c-12.7-12.7-12.7-33.2,0-45.9c0,0,0,0,0-0.1c10.2-10.2,26.8-10.2,37,0.1c0,0,0,0,0,0c8.2,8.2,8.2,21.6,0,29.8
			c-3.3,3.3-7.7,5-12.1,5c-4.4,0-8.8-1.7-12.1-5c-5.4-5.4-5.4-14.2,0-19.6c0.4-0.4,1-0.4,1.4,0c0,0,0,0,0,0c0.4,0.4,0.4,1,0,1.4
			c-4.6,4.6-4.6,12.2,0,16.8c5.9,5.9,15.5,5.9,21.4,0c7.5-7.5,7.5-19.6,0-27c0,0,0,0,0,0c-9.4-9.4-24.7-9.4-34.2,0
			c-5.9,6-8.9,13.7-8.9,21.5c0,7.8,3,15.6,8.9,21.5C61.5,105.2,85.8,105.2,100.7,90.2z"/>
		<path d="M30.2,88c0.5-0.8,1.1-1.4,1.9-1.9c-0.7-0.5-1.4-1.2-1.9-1.9c-0.5,0.8-1.1,1.4-1.9,1.9C29.1,86.6,29.7,87.2,30.2,88
			L30.2,88z M29.3,90.6c-0.5-1.7-1.8-3-3.5-3.5c-0.4-0.1-0.7-0.5-0.7-1c0-0.4,0.3-0.9,0.7-1c1.7-0.5,3-1.8,3.5-3.5
			c0.1-0.4,0.5-0.7,0.9-0.7c0.5,0,0.9,0.3,1,0.7c0.6,1.6,1.9,2.9,3.5,3.4c0.4,0.1,0.7,0.5,0.7,1c0,0.5-0.3,0.9-0.7,1
			c-1.7,0.5-3,1.9-3.5,3.6c-0.1,0.4-0.5,0.7-1,0.7C29.8,91.3,29.4,91,29.3,90.6z"/>
		<path d="M27.1,11.7c-0.3-0.5-0.1-1.1,0.4-1.4c0.9-0.5,1.8-1,2.8-1.5c0.5-0.2,1.1,0,1.3,0.4c0.2,0.5,0,1.1-0.5,1.3
			c-0.9,0.4-1.8,0.9-2.7,1.4c-0.1,0.1-0.3,0.1-0.5,0.1C27.6,12.3,27.3,12.1,27.1,11.7z"/>
		<path d="M25.4,20.8c0.1-0.4,0.5-0.7,1-0.7c0.4,0,0.8,0.3,0.9,0.7c0.8,2.8,3,4.9,5.7,5.8c0.4,0.1,0.7,0.5,0.7,1
			c0,0.4-0.3,0.8-0.7,0.9c-2.7,0.9-4.9,3-5.7,5.8c-0.1,0.3-0.4,0.6-0.7,0.7c-0.5,0.2-1.1-0.2-1.2-0.7c-0.8-2.8-3-4.9-5.8-5.8
			c-0.4-0.1-0.7-0.5-0.7-0.9c0-0.5,0.3-0.9,0.7-1C22.4,25.7,24.5,23.5,25.4,20.8z M30.3,27.5c-1.6-0.9-3-2.3-3.9-3.9
			c-0.9,1.6-2.3,3-3.9,3.9c1.6,0.9,3,2.3,3.9,3.9C27.3,29.8,28.7,28.4,30.3,27.5z"/>
		<path d="M32.8,37.8C14,56.6,14,87.1,32.8,105.9c20.7,20.8,53.3,23.6,77.3,6.8c0.5-0.3,1.1-0.2,1.4,0.2c0.3,0.4,0.2,1-0.2,1.3
			c-24.8,17.4-58.5,14.4-79.8-7.1c-19.5-19.6-19.5-51.3,0-70.9c15.8-15.7,41.2-15.7,57,0C101,49,101,69.6,88.4,82.2
			c-10.2,10.2-26.8,10.2-37,0c-8.2-8.2-8.2-21.6,0-29.9c6.7-6.7,17.5-6.7,24.2,0c5.4,5.4,5.4,14.2,0,19.6c-0.3,0.2-0.7,0.2-1,0
			c-0.5-0.3-0.7-0.9-0.4-1.3c4.6-4.6,4.6-12.2,0-16.8c-5.9-5.9-15.4-5.9-21.3,0c-7.4,7.5-7.4,19.5,0,27c9.4,9.4,24.7,9.4,34.2,0
			c5.9-5.9,8.9-13.7,8.9-21.5s-3-15.6-8.9-21.5C72,22.9,47.7,22.9,32.8,37.8z"/>
		<path d="M21.1,14.5c0.5-0.3,1.1-0.2,1.4,0.2c0.3,0.5,0.2,1.1-0.2,1.4c-2.5,1.8-4.8,3.8-7,6c-0.2,0.2-0.4,0.3-0.7,0.3
			c-0.3,0-0.5-0.1-0.7-0.3c-0.4-0.4-0.4-1,0-1.4C16.1,18.5,18.5,16.4,21.1,14.5L21.1,14.5z"/>
		<path d="M11.1,91.5c0.2,0.5-0.1,1.1-0.7,1.2c-0.1,0-0.2,0-0.3,0c-0.4,0-0.8-0.2-1-0.7c-0.8-2.7-1.4-5.3-1.9-8.1
			c-0.1-0.5,0.3-1.1,0.8-1.2c0.6-0.1,1.1,0.3,1.2,0.8C9.7,86.3,10.3,88.9,11.1,91.5C11.1,91.5,11.1,91.5,11.1,91.5z"/>
		<path d="M8.9,34.7c0.5-0.7,1.1-1.4,1.9-1.9c-0.7-0.5-1.4-1.2-1.9-1.9c-0.5,0.8-1.1,1.4-1.9,1.9C7.7,33.3,8.4,34,8.9,34.7L8.9,34.7
			z M13.4,31.8c0.4,0.1,0.7,0.5,0.7,1c0,0.5-0.3,0.9-0.7,1c-1.7,0.5-3,1.8-3.5,3.5c-0.1,0.3-0.4,0.6-0.7,0.7
			c-0.5,0.1-1.1-0.2-1.2-0.7c-0.6-1.7-1.9-2.9-3.6-3.4c-0.4-0.1-0.7-0.5-0.7-1c0-0.5,0.3-0.9,0.7-1c1.7-0.5,3-1.8,3.5-3.5
			c0.1-0.3,0.4-0.6,0.7-0.7c0.5-0.1,1.1,0.1,1.2,0.7C10.4,30,11.8,31.3,13.4,31.8z"/>
		<path d="M8.3,58.2c0.5,0.1,0.9,0.6,0.8,1.2c-1,6-1.3,12.2-0.7,18.3c0,0.6-0.4,1-0.9,1.1H7.4c-0.5,0-1-0.4-1-0.9
			C5.8,71.5,6.1,65.2,7.1,59C7.2,58.5,7.7,58.1,8.3,58.2z"/>
	</g>
	<g>
	</g>
</g>
</svg>
