<?xml version="1.0" encoding="utf-8"?>
<!-- Generator: Adobe Illustrator 22.1.0, SVG Export Plug-In . SVG Version: 6.00 Build 0)  -->
<svg version="1.1" id="Layer_1" xmlns="http://www.w3.org/2000/svg" xmlns:xlink="http://www.w3.org/1999/xlink" x="0px" y="0px"
	 viewBox="0 0 128 128" style="enable-background:new 0 0 128 128;" xml:space="preserve">
<style type="text/css">
	.st0{fill:#FAA916;}
	.st1{fill:#469BBC;}
	.st2{fill:#FFFFFF;}
</style>
<title></title>
<g id="XMLID_1_">
	<g>
		<path class="st0" d="M99.8,67.3c0,6.4-1.7,12.7-4.9,18.2c-2.5,4.2-6.8,6.8-11.6,7.2c-8.8,0.7-25.5,1.6-38.1,0.5
			c-4.8-0.4-9.2-3.2-11.6-7.4C31,81.4,28,74.7,28,67.3c0-20.2,16.5-37.2,35.9-37.2S99.8,47.1,99.8,67.3z M92.3,74.5
			c0.1-0.5-0.3-1-0.8-1.1c-0.6-0.1-1.1,0.3-1.1,0.9c0,0,0,0,0,0c-0.6,3.1-2,5.9-4.1,8.2c-0.4,0.4-0.4,1,0,1.4c0,0,0,0,0,0
			c0.2,0.2,0.4,0.3,0.7,0.3c0.3,0,0.5-0.1,0.7-0.3C90.1,81.2,91.7,78,92.3,74.5z M92,67.4c0.6,0,1-0.4,1-1c0-16.8-13.7-31-30-31
			c-0.5,0-1,0.5-1,1s0.5,1,1,1c15.2,0,28,13.3,28,29C91,66.9,91.4,67.4,92,67.4z M61.2,51.7c0.4-0.4,0.4-1,0-1.4s-1-0.4-1.4,0
			c0,0,0,0,0,0L46,64c-0.4,0.4-0.4,1,0,1.4c0,0,0,0,0,0c0.2,0.2,0.4,0.3,0.7,0.3s0.5-0.1,0.7-0.3L61.2,51.7z M58,64.6
			c0.4-0.4,0.4-1,0-1.4c-0.4-0.4-1-0.4-1.4-0.1c0,0,0,0-0.1,0.1L39.9,79.8c-0.4,0.4-0.4,1,0,1.4c0.2,0.2,0.4,0.3,0.7,0.3
			c0.3,0,0.5-0.1,0.7-0.3L58,64.6z M50.7,53.5c0.4-0.4,0.4-1,0-1.4c-0.4-0.4-1-0.4-1.4,0L36.4,64.9c-0.4,0.4-0.4,1,0,1.4
			c0,0,0,0,0,0c0.2,0.2,0.4,0.3,0.7,0.3c0.3,0,0.5-0.1,0.7-0.3L50.7,53.5z M44.5,68.7c0.4-0.4,0.4-1,0-1.4c-0.4-0.4-1-0.4-1.4,0
			c0,0,0,0,0,0L38,72.3c-0.4,0.4-0.4,1,0,1.4c0,0,0,0,0,0c0.4,0.4,1,0.4,1.4,0c0,0,0,0,0,0L44.5,68.7z"/>
		<path class="st1" d="M115.3,10.5c2.5,0,4.5,2,4.5,4.5c0,2.5-2,4.5-4.5,4.5c-2.5,0-4.5-2-4.5-4.6C110.7,12.5,112.8,10.5,115.3,10.5
			z"/>
		<path class="st2" d="M72.4,95.3v8.2H56.8v-7.9l2,0C63.5,95.6,68.2,95.5,72.4,95.3z"/>
		<path class="st2" d="M122.2,59.9c0.7,4.6,0.8,9.3,0.1,13.9c-0.2,1.3-1.2,2.4-2.5,2.8l-3.8,1c1.3-7.2,1.1-14.6-0.5-21.7l4.2,1.2
			C120.9,57.4,121.9,58.5,122.2,59.9L122.2,59.9z M120.3,73.1V62.4c0-0.5-0.4-1-1-1c-0.5,0-1,0.5-1,1v10.7c0,0.6,0.5,1,1,1
			C119.9,74.1,120.3,73.6,120.3,73.1z"/>
		<path class="st2" d="M114.7,68.1c0,13.2-5.1,26-14.4,35.5c-0.1,0.1-0.1,0.2-0.2,0.2c-0.7-0.2-1.4-0.3-2.1-0.3H74.3v-8.3
			c3.4-0.2,6.5-0.4,9-0.6c5.5-0.4,10.4-3.4,13.2-8.1c3.4-5.8,5.2-12.4,5.2-19.2c0-20.7-16.5-38.2-36.3-39.2V15.4
			c2.3,0.1,4.6,0.3,6.8,0.7v8.9c0,0.6,0.5,1,1,1c0.6,0,1-0.4,1-1v-8.5C97.1,21.7,114.7,43.2,114.7,68.1L114.7,68.1z"/>
		<path class="st2" d="M8.4,57l4-1.1c-1.6,7.1-1.8,14.4-0.5,21.6l-3.6-1C7,76.1,6,75.1,5.8,73.7c-0.7-4.6-0.6-9.3,0.1-13.9h0
			C6.1,58.5,7.1,57.3,8.4,57z M9.2,72.2V61.5c0-0.6-0.4-1-1-1s-1,0.4-1,1v10.7c0,0.6,0.5,1,1,1S9.2,72.8,9.2,72.2z"/>
		<path class="st2" d="M63.5,15.4v12.7C43.2,28.3,26,46.2,26,67.3c0,7.9,3.1,14.9,5.7,19.4c2.8,4.8,7.7,7.9,13.2,8.4
			c3.1,0.3,6.5,0.4,9.9,0.5v7.9H28.9c-0.5,0-1,0-1.4,0.1c0,0,0-0.1-0.1-0.1C18.2,94,13.1,81.3,13.1,68.1c0-25.4,18.4-47.2,41.8-51.8
			v8.3c0,0.5,0.5,1,1,1c0.6,0,1-0.5,1-1v-8.6C59,15.6,61.3,15.4,63.5,15.4z"/>
		<path d="M124.1,59.6c0.8,4.8,0.8,9.7,0.1,14.5c-0.4,2.1-1.9,3.8-4,4.3l-4.6,1.2c-0.1,0-0.1,0-0.2,0c-2.1,9.4-6.7,18-13.4,24.9
			c2.1,1.3,3.4,3.7,3.4,6.2v1.4c0,4.1-3.3,7.3-7.3,7.3H28.9c-4,0-7.3-3.3-7.3-7.3v-1.4c0-2.7,1.5-5.2,3.9-6.5
			c-6.5-6.9-11-15.4-13.1-24.7l-4.5-1.2c-2.1-0.5-3.6-2.2-4-4.3c-0.7-4.8-0.7-9.7,0.1-14.5c0.3-2.2,1.9-3.9,4-4.5l4.5-1.2
			c0.2,0,0.4,0,0.6,0c6.1-23.1,27-40.6,50.9-40.5h0.5h0.1h0.1c22.9,0.3,42.9,16.7,49.7,38.5V21.5c-2.8-0.4-5-2.6-5.5-5.5
			c-0.6-3.6,1.9-6.9,5.5-7.5c3.6-0.6,6.9,1.9,7.5,5.5c0.6,3.6-1.9,6.9-5.5,7.5v32.6l3.8,1C122.2,55.7,123.8,57.4,124.1,59.6z
			 M122.2,73.8c0.7-4.6,0.7-9.3-0.1-13.9h0c-0.2-1.4-1.2-2.5-2.5-2.9l-4.2-1.2c1.7,7.1,1.8,14.5,0.5,21.7l3.8-1
			C121,76.2,122,75.1,122.2,73.8z M119.8,15.1c0-2.5-2-4.5-4.5-4.5c-2.5,0-4.5,2-4.5,4.5c0,2.5,2,4.5,4.5,4.6
			C117.8,19.6,119.8,17.6,119.8,15.1z M100.4,103.5c9.2-9.5,14.4-22.2,14.4-35.5l0,0c0-24.9-17.6-46.4-40.4-51.5v8.5
			c0,0.6-0.4,1-1,1c-0.5,0-1-0.4-1-1v-8.9c-2.3-0.4-4.5-0.6-6.8-0.7v12.7c19.8,0.9,36.3,18.5,36.3,39.2c0,6.7-1.8,13.4-5.2,19.2
			c-2.8,4.7-7.7,7.8-13.2,8.1c-2.5,0.2-5.6,0.4-9,0.6v8.3h23.8c0.7,0,1.4,0.1,2.1,0.3C100.2,103.7,100.3,103.6,100.4,103.5z
			 M103.5,112.2v-1.4h0c0-2.9-2.4-5.3-5.3-5.3h-3v12h3C101.1,117.5,103.5,115.1,103.5,112.2z M94.8,85.4c3.2-5.5,4.9-11.8,4.9-18.2
			c0-20.2-16.4-37.2-35.9-37.2S28,47.1,28,67.3c0,7.4,3,14.1,5.5,18.4c2.4,4.2,6.8,7,11.6,7.4c12.6,1.1,29.3,0.2,38.1-0.5
			C88,92.3,92.4,89.6,94.8,85.4z M93.1,117.5v-12H33.9v12H93.1z M72.4,103.5v-8.2c-4.2,0.2-8.8,0.3-13.5,0.3l-2,0v7.9H72.4z
			 M63.5,28.1V15.4c-2.2,0-4.5,0.2-6.7,0.5v8.6c0,0.5-0.4,1-1,1c-0.5,0-1-0.5-1-1v-8.3c-23.4,4.6-41.8,26.4-41.8,51.8
			c0,13.2,5.1,26,14.4,35.5c0.1,0,0.1,0.1,0.1,0.1c0.5-0.1,0.9-0.1,1.4-0.1h25.9v-7.9c-3.4-0.1-6.8-0.2-9.9-0.5
			c-5.5-0.5-10.4-3.6-13.2-8.4C29.1,82.2,26,75.1,26,67.3C26,46.2,43.2,28.3,63.5,28.1z M31.9,117.5v-12h-3c-2.9,0-5.3,2.4-5.3,5.3
			v1.4c0,2.9,2.4,5.3,5.3,5.3H31.9z M12.4,55.9l-4,1.1c-1.3,0.3-2.4,1.5-2.6,2.9h0c-0.8,4.6-0.8,9.3-0.1,13.9
			C6,75.1,7,76.1,8.3,76.5l3.6,1C10.6,70.3,10.8,63,12.4,55.9z"/>
		<path d="M120.3,62.4v10.7c0,0.6-0.4,1-1,1c-0.5,0-1-0.4-1-1V62.4c0-0.5,0.5-1,1-1C119.9,61.4,120.3,61.8,120.3,62.4z"/>
		<path class="st2" d="M103.5,110.8v1.4c0,3-2.4,5.3-5.3,5.3h-3v-12h3C101.1,105.5,103.4,107.9,103.5,110.8L103.5,110.8z"/>
		<path class="st2" d="M93.1,105.5v12H33.9v-12H93.1z M87.2,111.8c0-0.5-0.4-1-1-1h-9.4c-0.6,0-1,0.5-1,1c0,0.6,0.4,1,1,1h9.4
			C86.8,112.8,87.2,112.3,87.2,111.8z M73.9,111.5c0-0.5-0.4-1-1-1H55.7c-0.5,0-1,0.5-1,1c0,0.6,0.5,1,1,1h17.1
			C73.4,112.5,73.9,112,73.9,111.5z M52.1,111.5c0-0.5-0.5-1-1-1h-6.4c-0.5,0-1,0.5-1,1c0,0.6,0.5,1,1,1h6.4
			C51.7,112.5,52.1,112,52.1,111.5z"/>
		<path d="M91.5,73.4c0.5,0.1,0.9,0.6,0.8,1.1c-0.6,3.5-2.2,6.7-4.6,9.3c-0.2,0.2-0.5,0.3-0.7,0.3c-0.2,0-0.5-0.1-0.7-0.3
			c0,0,0,0,0,0c-0.4-0.4-0.4-1,0-1.4c2.1-2.3,3.5-5.1,4.1-8.2c0,0,0,0,0,0C90.4,73.7,90.9,73.3,91.5,73.4z"/>
		<path d="M93,66.4c0,0.6-0.4,1-1,1s-1-0.4-1-1c0-15.7-12.8-29-28-29c-0.5,0-1-0.5-1-1s0.5-1,1-1C79.3,35.4,93,49.6,93,66.4z"/>
		<path d="M86.2,110.8c0.6,0,1,0.5,1,1c0,0.6-0.4,1-1,1h-9.4c-0.6,0-1-0.4-1-1c0-0.5,0.4-1,1-1H86.2z"/>
		<path d="M72.9,110.5c0.6,0,1,0.5,1,1c0,0.6-0.4,1-1,1H55.7c-0.5,0-1-0.4-1-1c0-0.5,0.5-1,1-1H72.9z"/>
		<path d="M61.2,50.3c0.4,0.4,0.4,1,0,1.4L47.4,65.4c-0.2,0.2-0.4,0.3-0.7,0.3s-0.5-0.1-0.7-0.3c0,0,0,0,0,0c-0.4-0.4-0.4-1,0-1.4
			l13.7-13.7c0,0,0,0,0,0C60.1,49.9,60.8,49.9,61.2,50.3z"/>
		<path d="M58,63.2c0.4,0.4,0.4,1,0,1.4L41.3,81.2c-0.2,0.2-0.4,0.3-0.7,0.3c-0.3,0-0.5-0.1-0.7-0.3c-0.4-0.4-0.4-1,0-1.4l16.6-16.7
			c0,0,0,0,0.1-0.1C57,62.7,57.6,62.7,58,63.2z"/>
		<path d="M51.1,110.5c0.5,0,1,0.5,1,1c0,0.6-0.5,1-1,1h-6.4c-0.5,0-1-0.4-1-1c0-0.5,0.5-1,1-1H51.1z"/>
		<path d="M50.7,52c0.4,0.4,0.4,1,0,1.4L37.8,66.3c-0.2,0.2-0.4,0.3-0.7,0.3c-0.3,0-0.5-0.1-0.7-0.3c0,0,0,0,0,0
			c-0.4-0.4-0.4-1,0-1.4L49.2,52C49.7,51.6,50.3,51.6,50.7,52z"/>
		<path d="M44.5,67.2c0.4,0.4,0.4,1,0,1.4l-5.1,5.1c0,0,0,0,0,0c-0.4,0.4-1,0.4-1.4,0c0,0,0,0,0,0c-0.4-0.4-0.4-1,0-1.4l5.1-5.1
			c0,0,0,0,0,0C43.5,66.8,44.2,66.8,44.5,67.2z"/>
		<path class="st2" d="M31.9,105.5v12h-3c-2.9,0-5.3-2.4-5.3-5.3v-1.4c0-2.9,2.4-5.3,5.3-5.3H31.9z"/>
		<path d="M9.2,61.5v10.7c0,0.6-0.4,1-1,1s-1-0.4-1-1V61.5c0-0.6,0.5-1,1-1S9.2,60.9,9.2,61.5z"/>
	</g>
	<g>
	</g>
</g>
</svg>
