<?xml version="1.0" encoding="utf-8"?>
<!-- Generator: Adobe Illustrator 22.1.0, SVG Export Plug-In . SVG Version: 6.00 Build 0)  -->
<svg version="1.1" id="Layer_1" xmlns="http://www.w3.org/2000/svg" xmlns:xlink="http://www.w3.org/1999/xlink" x="0px" y="0px"
	 viewBox="0 0 128 128" style="enable-background:new 0 0 128 128;" xml:space="preserve">
<style type="text/css">
	.st0{fill:#EF4848;}
	.st1{fill:#E03643;}
	.st2{fill:#B2B2B2;}
	.st3{fill:#DDC537;}
	.st4{fill:#7AC6F4;}
</style>
<title></title>
<path d="M62.6,103.3c-0.4-0.4-1-0.4-1.4,0l-17.4,17.4c-0.4,0.4-0.4,1,0,1.4c0.2,0.2,0.4,0.3,0.7,0.3c0.3,0,0.5-0.1,0.7-0.3
	l17.4-17.4C63,104.4,63,103.7,62.6,103.3z"/>
<path d="M58.7,116.3c0.3,0,0.5-0.1,0.7-0.3l7.3-7.3c0.4-0.4,0.3-1.1-0.1-1.4c-0.4-0.3-0.9-0.3-1.3,0l-7.2,7.3c-0.4,0.4-0.4,1,0,1.4
	C58.2,116.2,58.4,116.3,58.7,116.3L58.7,116.3z"/>
<path d="M55.2,117.4l-2.8,2.8c-0.4,0.4-0.4,1,0,1.4c0.2,0.2,0.4,0.3,0.7,0.3c0.3,0,0.5-0.1,0.7-0.3l2.8-2.8c0.4-0.4,0.4-1,0-1.4
	C56.2,117,55.6,117,55.2,117.4C55.2,117.4,55.2,117.4,55.2,117.4z"/>
<path d="M5.9,84.1c0.2,0.2,0.4,0.3,0.7,0.3c0.3,0,0.5-0.1,0.7-0.3l17.4-17.4c0.4-0.4,0.5-1,0.1-1.4s-1-0.5-1.4-0.1
	c0,0-0.1,0.1-0.1,0.1L5.9,82.7C5.5,83.1,5.5,83.7,5.9,84.1C5.9,84.1,5.9,84.1,5.9,84.1z"/>
<path d="M13.4,70.1l7.3-7.3c0.4-0.4,0.5-1,0.1-1.4c-0.4-0.4-1-0.5-1.4-0.1c0,0-0.1,0.1-0.1,0.1L12,68.6c-0.4,0.4-0.4,1,0,1.4
	c0.2,0.2,0.4,0.3,0.7,0.3C13,70.3,13.2,70.2,13.4,70.1z"/>
<path d="M7.8,75.6l2.8-2.8c0.4-0.4,0.4-1,0-1.4c0,0,0,0,0,0c-0.4-0.4-1-0.4-1.4,0l-2.8,2.8c-0.4,0.4-0.4,1,0,1.4
	c0.2,0.2,0.4,0.3,0.7,0.3C7.4,75.9,7.6,75.8,7.8,75.6z"/>
<g id="XMLID_1_">
	<g>
		<polygon class="st0" points="65.6,36 44.1,57.5 28.4,41.9 		"/>
		<polygon class="st0" points="92,62.4 86.1,99.5 70.5,83.9 		"/>
		<path d="M115.1,5.7c4.5,0.4,7.7,4.4,7.3,8.9l-1.1,11.3c-0.1,1.2-0.3,2.3-0.6,3.4c0,0,0,0.1,0,0.1c-1,3.9-3.1,7.5-5.9,10.3L94.4,60
			L88,100.8c0,0.2-0.1,0.4-0.3,0.6l-0.5,0.5l-6,6c0,0,0,0,0,0c-0.4,0.4-1,0.4-1.4,0L63.1,91.3L58.4,96c0,0,0,0,0,0
			c-0.4,0.4-1,0.4-1.4,0L44.9,83.9l-4.5,4.5c-0.2,0.2-0.4,0.3-0.7,0.3c-0.3,0-0.5-0.1-0.7-0.3c-0.4-0.4-0.4-1,0-1.4l4.5-4.5L32,71.1
			c0,0,0,0,0,0c-0.4-0.4-0.4-1,0-1.4l4.7-4.7L20.1,48.3c0,0,0,0,0,0c-0.4-0.4-0.4-1,0-1.4l6.5-6.5c0.1-0.2,0.3-0.2,0.6-0.3L68,33.6
			l20.3-20.3c2.8-2.9,6.4-4.9,10.3-6h0.2c1.1-0.3,2.3-0.5,3.4-0.6l11.2-1.1C114,5.6,114.5,5.6,115.1,5.7z M120.4,14.3
			c0-0.4,0-0.8,0-1.2c-0.3-3.4-3.3-5.8-6.7-5.5l-11.3,1.1v0c-0.4,0-0.9,0.1-1.3,0.2l18,18c0.1-0.4,0.2-0.9,0.2-1.4L120.4,14.3z
			 M118.6,29.2L98.8,9.4v0c-3.4,1-6.5,2.8-9,5.3L44.8,59.7L34.1,70.3l10.8,10.8l28.8-28.8c0,0,0,0,0,0c0.4-0.4,1-0.4,1.4,0
			c0.4,0.4,0.4,1,0,1.4L46.3,82.5l11.4,11.4l55.6-55.7C115.8,35.7,117.6,32.6,118.6,29.2z M86.1,99.5L92,62.4L70.5,83.9L86.1,99.5z
			 M80.4,105.8l4.6-4.5l-16-16l-4.6,4.5L80.4,105.8z M44.1,57.5L65.6,36l-37.2,5.9L44.1,57.5z M38.1,63.5l4.6-4.6L26.7,43l-4.5,4.5
			L38.1,63.5z"/>
		<path class="st1" d="M120.4,13.1c0,0.4,0,0.8,0,1.2l-1.1,11.3c0,0.5-0.1,0.9-0.2,1.4l-18-18c0.4-0.1,0.9-0.1,1.3-0.2v0l11.3-1.1
			C117.1,7.3,120.1,9.7,120.4,13.1z"/>
		<path class="st2" d="M98.8,9.4l19.8,19.8c-1,3.4-2.8,6.5-5.3,9L57.7,93.9L46.3,82.5l28.8-28.8c0.4-0.4,0.4-1,0-1.4
			c-0.4-0.4-1-0.4-1.4,0c0,0,0,0,0,0L44.9,81.1L34.1,70.3l10.7-10.7l44.9-44.9C92.3,12.2,95.4,10.4,98.8,9.4L98.8,9.4z"/>
		<polygon class="st1" points="85,101.3 80.4,105.8 64.4,89.8 69,85.3 		"/>
		<polygon class="st1" points="42.7,58.9 38.1,63.5 22.2,47.5 26.7,43 		"/>
	</g>
	<g>
	</g>
</g>
<g id="XMLID_2_">
	<g>
		<path class="st3" d="M27.2,91.7c5.1,0,9.2,4.2,9.1,9.3c0,0.5-0.1,1-0.1,1.5c-0.5,3-2.4,5.5-5.2,6.7l-19.5,9.1
			c-0.7,0.3-1.4,0-1.8-0.6c-0.2-0.4-0.2-0.8,0-1.1L18.8,97c1.3-2.7,3.8-4.7,6.7-5.2C26.1,91.7,26.6,91.7,27.2,91.7z"/>
		<path d="M36.2,102.5c0.1-0.5,0.1-1,0.1-1.5c0-5.1-4.1-9.2-9.1-9.3c-0.5,0-1.1,0.1-1.6,0.1c-3,0.5-5.5,2.4-6.7,5.2l-9.1,19.5
			c-0.2,0.4-0.2,0.8,0,1.1c0.3,0.7,1.1,0.9,1.8,0.6l19.5-9.1C33.7,108,35.7,105.4,36.2,102.5z M37.3,96.2c2.6,5.6,0.1,12.3-5.5,14.8
			l-19.5,9.1c-0.4,0.2-0.9,0.3-1.4,0.3c-0.5,0-1-0.1-1.4-0.3c-1.7-0.8-2.4-2.8-1.6-4.4L17,96.2c1.1-2.4,3.1-4.4,5.5-5.5
			C28.1,88.1,34.8,90.5,37.3,96.2z"/>
	</g>
	<g>
	</g>
</g>
<g id="XMLID_3_">
	<g>
		<path class="st4" d="M102.1,25.9c3.3,3.3,3.3,8.7,0,12c-3.3,3.3-8.6,3.3-11.9,0c-3.3-3.3-3.3-8.6-0.1-11.9c0,0,0.1-0.1,0.1-0.1h0
			C93.5,22.5,98.8,22.6,102.1,25.9z"/>
		<path d="M90.1,26c-3.3,3.3-3.2,8.6,0.1,11.9c3.3,3.3,8.6,3.3,11.9,0c3.3-3.3,3.3-8.6,0-12c-3.3-3.3-8.7-3.3-12,0h0
			C90.2,25.9,90.1,25.9,90.1,26z M85.7,31.8c0-5.8,4.7-10.5,10.5-10.5c5.8,0,10.4,4.7,10.4,10.5c0,5.8-4.7,10.5-10.5,10.5
			c-2.8,0-5.4-1.1-7.4-3.1S85.7,34.6,85.7,31.8z"/>
	</g>
	<g>
	</g>
</g>
</svg>
