<?xml version="1.0" encoding="utf-8"?>
<!-- Generator: Adobe Illustrator 22.1.0, SVG Export Plug-In . SVG Version: 6.00 Build 0)  -->
<svg version="1.1" id="Layer_1" xmlns="http://www.w3.org/2000/svg" xmlns:xlink="http://www.w3.org/1999/xlink" x="0px" y="0px"
	 viewBox="0 0 128 128" style="enable-background:new 0 0 128 128;" xml:space="preserve">
<style type="text/css">
	.st0{fill:#C6C6C6;}
	.st1{fill:#656868;}
	.st2{fill:#CC9127;}
	.st3{fill:#CBD1D1;}
</style>
<title></title>
<g id="XMLID_1_">
	<g>
		<path class="st0" d="M99.2,66.5c0,0.8-0.6,1.5-1.4,1.5c-0.8,0-1.5-0.6-1.5-1.4v0h0c0-0.8,0.6-1.5,1.5-1.5
			C98.5,65.1,99.2,65.7,99.2,66.5z"/>
		<path class="st0" d="M112.1,86.3c0.2,0.3,0.3,0.7,0.2,1.1c-0.1,0.8-0.9,1.3-1.7,1.2c-0.8-0.1-1.3-0.9-1.2-1.7c0-0.1,0-0.1,0-0.2
			c0.1-0.4,0.3-0.7,0.7-0.9C110.8,85.4,111.7,85.6,112.1,86.3C112.1,86.3,112.1,86.3,112.1,86.3z"/>
		<path d="M125.5,91.6c0.3,0.5,0.1,1.1-0.3,1.4l-6.7,4.2l1.9,2.9c0.3,0.5,0.2,1.1-0.3,1.4c-0.2,0.1-0.4,0.2-0.6,0.2
			c-0.3,0-0.6-0.2-0.8-0.4l-2-3l-6.9,4.3c-0.2,0.1-0.3,0.2-0.5,0.2c-0.1,0-0.1,0-0.2,0c-0.3-0.1-0.5-0.2-0.6-0.4
			c-2.3-3.8-1.9-8.6,1-11.9c-0.3-0.2-0.6-0.3-0.9-0.6c-1.4-1.3-1.5-3.4-0.2-4.8l-9.1-15.1c-1.3,0.6-2.9,0.3-3.9-0.7l-12.6,7.8h1.4
			c2.3,0,4.2,1.9,4.2,4.2v0.6c0,2.3-1.9,4.2-4.2,4.2H68.9L81.2,98c0.1,0.1,0.1,0.2,0.2,0.3c4.4,0.3,8.1,3.6,8.9,8
			c1,5.3-2.5,10.5-7.8,11.5c-5.3,1-10.5-2.5-11.5-7.8c-1-5.3,2.5-10.5,7.8-11.5L66.3,85.9c-0.1-0.1-0.1-0.1-0.1-0.2H62
			c0,0.1-0.1,0.1-0.1,0.2L49.1,98.7c3.4,1,6,3.8,6.7,7.2c1.2,5.3-2.1,10.5-7.4,11.7c-5.3,1.2-10.5-2.1-11.8-7.4
			c-1.2-5.3,2.1-10.5,7.4-11.7L31.5,85.9c0-0.1-0.1-0.1-0.1-0.2h-5.2L13.6,98.3c4.3,0.6,7.8,4,8.4,8.4c0.7,5.4-3,10.3-8.4,11.1
			c-5.4,0.8-10.3-3-11.1-8.4c-0.7-5.4,3-10.3,8.4-11.1c0.1-0.1,0.1-0.2,0.2-0.3l12.3-12.2H7.2c-2.3,0-4.2-1.9-4.2-4.2V81
			c0-2.3,1.8-4.2,4.2-4.2h4.1l2.9-17.6c0.6-4,4-6.9,8.1-6.9h12.3c0.2-3.6,2.9-6.7,6.6-8.2V32.1h-5.9c-0.5,0-1-0.4-1-1V11.1
			c0-0.6,0.5-1,1-1H56c0.5,0,1,0.4,1,1v20.1c0,0.6-0.5,1-1,1h-5.2v12c3.8,1.5,6.5,4.6,6.8,8.2h11.5c4,0,7.4,2.9,8.1,6.9l2.8,16.9
			l14.4-9c0-0.2-0.1-0.4-0.1-0.6c0.1-1.8,1.5-3.2,3.3-3.3c1.9-0.1,3.5,1.4,3.6,3.3c0,0.6-0.2,1.2-0.5,1.8l9.3,15.4
			c0.3-0.1,0.6-0.1,0.9-0.1c1.2,0,2.3,0.6,2.9,1.6c0.4,0.6,0.5,1.2,0.5,1.9c0.9-0.2,1.8-0.3,2.6-0.3
			C120.4,86.8,123.6,88.6,125.5,91.6z M109.7,100.2l13.5-8.4c-2.3-2.9-6.3-3.8-9.7-2.2C109.5,91.4,107.8,96.2,109.7,100.2z
			 M112.3,87.4c0.1-0.4,0-0.8-0.2-1.1c0,0,0,0,0,0c-0.4-0.7-1.3-0.8-2-0.4c-0.3,0.2-0.6,0.5-0.7,0.9c0,0.1,0,0.1,0,0.2
			c-0.1,0.8,0.4,1.6,1.2,1.7C111.4,88.7,112.2,88.2,112.3,87.4z M97.8,68c0.8,0,1.4-0.7,1.4-1.5c0-0.8-0.7-1.5-1.5-1.4
			c-0.8,0-1.5,0.7-1.5,1.5h0v0C96.3,67.4,97,68,97.8,68z M88.4,108.1L88.4,108.1c0-4.3-3.5-7.8-7.8-7.8c0,0,0,0,0,0
			c-4.3,0-7.8,3.5-7.8,7.8s3.5,7.8,7.8,7.8S88.4,112.4,88.4,108.1L88.4,108.1z M86.3,81.6V81c0,0,0,0,0,0c0-1.2-1-2.2-2.2-2.2H7.2
			C6,78.8,5,79.8,5,81v0.6c0,1.2,1,2.2,2.2,2.2h76.9C85.3,83.8,86.3,82.8,86.3,81.6z M78,76.8l-2.8-17.2c-0.5-3-3.1-5.2-6.1-5.2h-47
			c-3,0-5.6,2.2-6.1,5.2l-2.8,17.2h3.4l2.6-14.6c0.1-0.5,0.6-0.9,1.2-0.8c0.5,0.1,0.9,0.6,0.8,1.2l-2.6,14.2H78z M47,98l12.3-12.2
			H34.2L46.5,98c0.1,0.1,0.1,0.2,0.2,0.3h0.1C46.9,98.2,46.9,98.1,47,98z M36.5,52.4h19.1c-0.4-4-4.5-7.1-9.6-7.1
			C41,45.3,36.8,48.4,36.5,52.4z M55,30.1v-18H36.2l0,18H55z M54.1,108.1c0-2.2-0.9-4.1-2.3-5.5c-1.4-1.4-3.4-2.3-5.5-2.3
			c-4.3,0-7.8,3.5-7.8,7.8s3.5,7.8,7.8,7.8S54.1,112.4,54.1,108.1z M48.8,43.6V32.2H43v11.4C45,43.1,46.9,43.1,48.8,43.6z M20,108.1
			c0-2.2-0.9-4.1-2.3-5.5c-1.4-1.4-3.4-2.3-5.5-2.3c-4.3,0-7.8,3.5-7.8,7.8s3.5,7.8,7.8,7.8S20,112.4,20,108.1z"/>
		<path class="st0" d="M123.2,91.8l-13.5,8.4c-1.9-4-0.2-8.8,3.8-10.7C116.8,87.9,120.8,88.8,123.2,91.8z"/>
		<path class="st1" d="M88.4,108.1L88.4,108.1L88.4,108.1c0,4.3-3.5,7.8-7.8,7.8s-7.8-3.5-7.8-7.8s3.5-7.8,7.8-7.8c0,0,0,0,0,0
			C84.9,100.3,88.4,103.8,88.4,108.1z"/>
		<path class="st2" d="M86.3,81v0.6c0,1.2-1,2.2-2.2,2.2H7.2c-1.2,0-2.1-1-2.2-2.2V81c0-1.2,1-2.2,2.2-2.2h76.9
			C85.3,78.8,86.3,79.8,86.3,81C86.3,81,86.3,81,86.3,81z"/>
		<path class="st2" d="M75.2,59.6L78,76.8H18.6l2.6-14.2c0.1-0.5-0.3-1.1-0.8-1.2c-0.5-0.1-1.1,0.3-1.2,0.8l-2.6,14.6h-3.4L16,59.6
			c0.5-3,3.1-5.2,6.1-5.2h47C72.1,54.4,74.7,56.6,75.2,59.6z"/>
		<path class="st3" d="M55.6,52.4H36.5c0.4-4,4.5-7.1,9.5-7.1C51.1,45.3,55.2,48.4,55.6,52.4z"/>
		<polygon class="st2" points="55,12.1 55,30.1 36.2,30.1 36.2,12.1 		"/>
		<path class="st1" d="M51.8,102.6c1.4,1.4,2.3,3.4,2.3,5.5c0,4.3-3.5,7.8-7.8,7.8s-7.8-3.5-7.8-7.8s3.5-7.8,7.8-7.8
			C48.5,100.3,50.4,101.2,51.8,102.6z"/>
		<path class="st3" d="M48.8,32.2v11.4c-1.9-0.4-3.9-0.4-5.8,0V32.2H48.8z"/>
		<path class="st1" d="M17.7,102.6c1.4,1.4,2.3,3.4,2.3,5.5c0,4.3-3.5,7.8-7.8,7.8s-7.8-3.5-7.8-7.8s3.5-7.8,7.8-7.8
			C14.3,100.3,16.3,101.2,17.7,102.6z"/>
	</g>
	<g>
	</g>
</g>
<path d="M42.2,108.1c0,2.3,1.8,4.1,4.1,4.1c2.3,0,4.1-1.8,4.1-4.1c0-2.3-1.8-4.1-4.1-4.1C44,104,42.2,105.8,42.2,108.1z M48.4,108.1
	c0,1.2-0.9,2.1-2.1,2.1c-1.2,0-2.1-0.9-2.1-2.1c0-1.2,0.9-2.1,2.1-2.1C47.5,106,48.4,106.9,48.4,108.1
	C48.4,108.1,48.4,108.1,48.4,108.1z"/>
<path d="M45.6,13.7c-0.6,0-1,0.4-1,1s0.4,1,1,1c3,0,5.4,2.4,5.4,5.4s-2.4,5.4-5.4,5.4s-5.4-2.4-5.4-5.4c0-0.6-0.4-1-1-1s-1,0.4-1,1
	c0,4.1,3.3,7.4,7.4,7.4s7.4-3.3,7.4-7.4C53.1,17,49.7,13.7,45.6,13.7C45.6,13.7,45.6,13.7,45.6,13.7z"/>
<path d="M45.6,24.3c1.8,0,3.2-1.4,3.2-3.2s-1.4-3.2-3.2-3.2c-1.8,0-3.2,1.4-3.2,3.2S43.9,24.3,45.6,24.3L45.6,24.3z M45.6,19.9
	c0.7,0,1.2,0.5,1.2,1.2s-0.5,1.2-1.2,1.2s-1.2-0.5-1.2-1.2S45,19.9,45.6,19.9L45.6,19.9z"/>
<path d="M76.5,108.1c0,2.3,1.8,4.1,4.1,4.1c2.3,0,4.1-1.8,4.1-4.1c0-2.3-1.8-4.1-4.1-4.1C78.4,104,76.5,105.8,76.5,108.1
	C76.5,108.1,76.5,108.1,76.5,108.1z M82.7,108.1c0,1.2-0.9,2.1-2.1,2.1c-1.2,0-2.1-0.9-2.1-2.1c0-1.2,0.9-2.1,2.1-2.1
	C81.8,106,82.7,106.9,82.7,108.1C82.7,108.1,82.7,108.1,82.7,108.1z"/>
<path d="M8.1,108.1c0,2.3,1.8,4.1,4.1,4.1c2.3,0,4.1-1.8,4.1-4.1c0-2.3-1.8-4.1-4.1-4.1C10,104,8.1,105.8,8.1,108.1
	C8.1,108.1,8.1,108.1,8.1,108.1z M14.3,108.1c0,1.2-0.9,2.1-2.1,2.1c-1.2,0-2.1-0.9-2.1-2.1c0-1.2,0.9-2.1,2.1-2.1
	C13.4,106,14.3,106.9,14.3,108.1C14.3,108.1,14.3,108.1,14.3,108.1z"/>
<path d="M64.2,69.1c-0.6,0-1,0.4-1,1s0.4,1,1,1h7.2c0.6,0,1-0.4,1-1s-0.4-1-1-1H64.2z"/>
<path d="M63.5,65.2c-0.6,0-1,0.4-1,1s0.4,1,1,1h7.2c0.6,0,1-0.4,1-1s-0.4-1-1-1H63.5z"/>
<path d="M62.7,63.4h7.2c0.6,0,1-0.4,1-1s-0.4-1-1-1h-7.2c-0.6,0-1,0.4-1,1S62.1,63.4,62.7,63.4z"/>
<path d="M27.7,63.4h27.8c0.6,0,1-0.4,1-1s-0.4-1-1-1H27.7c-0.6,0-1,0.4-1,1S27.1,63.4,27.7,63.4z"/>
<path d="M23.9,72.7h32.4c0.6,0,1-0.4,1-1c0-0.1,0-0.1,0-0.2l-0.8-3.9c-0.1-0.5-0.5-0.8-1-0.8H24.6c-0.5,0-0.9,0.3-1,0.8l-0.8,3.9
	c-0.1,0.3,0,0.6,0.2,0.8C23.2,72.5,23.5,72.7,23.9,72.7z M25.4,68.8h29.2l0.3,1.9H25L25.4,68.8z"/>
</svg>
