<?xml version="1.0" encoding="utf-8"?>
<!-- Generator: Adobe Illustrator 22.1.0, SVG Export Plug-In . SVG Version: 6.00 Build 0)  -->
<svg version="1.1" id="Layer_1" xmlns="http://www.w3.org/2000/svg" xmlns:xlink="http://www.w3.org/1999/xlink" x="0px" y="0px"
	 viewBox="0 0 128 128" style="enable-background:new 0 0 128 128;" xml:space="preserve">
<style type="text/css">
	.st0{fill:#A8C0C6;}
	.st1{fill:#9FA2A3;}
	.st2{fill:#C9A339;}
</style>
<title></title>
<g id="XMLID_2_">
	<g>
		<path class="st0" d="M48.5,30.8c4.3,5.4,3.5,13.3-2,17.7c-4.6,3.7-11.1,3.7-15.7,0L48.5,30.8z"/>
		<path d="M46.5,48.5c5.4-4.3,6.3-12.2,2-17.7L30.8,48.5C35.4,52.1,41.9,52.1,46.5,48.5z M49.2,28.6c2.5,2.7,4,6.3,4,10
			c0,8.1-6.5,14.6-14.6,14.7c-3.7,0-7.3-1.4-10-4c0,0,0,0,0,0c-0.4-0.4-0.4-1,0-1.4l8.9-8.9l-1.7-1.7c-0.4-0.4-0.4-1,0-1.4
			s1-0.4,1.4,0l1.7,1.7l8.9-8.9c0.2-0.2,0.5-0.3,0.7-0.3C48.8,28.3,49,28.4,49.2,28.6z"/>
	</g>
	<g>
	</g>
</g>
<g id="XMLID_1_">
	<g>
		<polygon class="st1" points="97.7,78.3 78.3,97.6 74.6,94 94,74.6 		"/>
		<polygon class="st1" points="92.3,73.4 73.4,92.3 70.6,87.4 87.4,70.6 		"/>
		
			<rect x="40.4" y="50.5" transform="matrix(0.7071 -0.7071 0.7071 0.7071 -21.5619 52.055)" class="st1" width="23.3" height="3.1"/>
		<path class="st1" d="M80.5,67.4c-0.4,0.4-0.4,1,0,1.4c0.4,0.4,1,0.4,1.4,0l1.7-1.7l2.2,2.2L69.3,85.8l-2.2-2.2L78.7,72
			c0.4-0.4,0.4-1,0-1.4c-0.4-0.4-1-0.4-1.4,0c0,0,0,0,0,0L65.7,82.2L46.3,62.8l16.5-16.5l19.4,19.4L80.5,67.4z"/>
		<path class="st2" d="M17,112.3C17.1,112.3,17.1,112.3,17,112.3l10-10l9.3,9.3l-11.2,11.2l-10-10l0.5-0.5
			C16,112.7,16.7,112.7,17,112.3z"/>
		<path class="st2" d="M15.6,110.9c-0.4,0.4-0.4,1,0,1.4l-0.5,0.5l-10-10l11.2-11.2l9.3,9.3L15.6,110.9z"/>
		
			<rect x="20.1" y="82.6" transform="matrix(0.7062 -0.7081 0.7081 0.7062 -54.9734 46.0149)" class="st2" width="15.8" height="13.2"/>
		
			<rect x="30.8" y="93.4" transform="matrix(0.7075 -0.7067 0.7067 0.7075 -59.3557 56.599)" class="st2" width="15.7" height="13.2"/>
		<path class="st2" d="M51.3,76.5l10.1,10.1L50.3,97.7L41,88.4l9.6-9.7c0.4-0.4,0.3-1-0.1-1.4L51.3,76.5z"/>
		<path class="st2" d="M49.2,77.3L39.6,87l-9.3-9.3l11.1-11.1l10,10l-0.8,0.8C50.2,77,49.6,77,49.2,77.3z"/>
		<path class="st2" d="M102.8,5.2l10,10l-0.4,0.4c-0.4-0.4-1-0.4-1.4,0c0,0,0,0,0,0l-10,10l-9.3-9.3L102.8,5.2z"/>
		<path class="st2" d="M112.8,15.2l10,10l-11.2,11.2l-9.3-9.3l10-10c0.4-0.4,0.4-1,0-1.4L112.8,15.2z"/>
		
			<rect x="92.2" y="32.2" transform="matrix(0.7081 -0.7062 0.7062 0.7081 1.8197 81.9716)" class="st2" width="15.7" height="13.2"/>
		<polygon class="st2" points="99.5,27.1 88.4,38.2 79.1,28.9 90.2,17.8 		"/>
		<path class="st2" d="M77.4,49.3c-0.4,0.4-0.4,1,0,1.4l-0.8,0.8l-10-10l11.1-11.1l9.3,9.3L77.4,49.3z"/>
		<path class="st2" d="M77.4,50.7c0.4,0.4,1,0.4,1.4,0l9.7-9.6l9.3,9.3L86.6,61.5l-10-10L77.4,50.7z"/>
		<path d="M102.4,27.1l9.3,9.3l11.2-11.2l-10-10l-10-10L91.6,16.4l9.3,9.3l10-10c0,0,0,0,0,0c0.4-0.4,1-0.4,1.4,0
			c0.4,0.4,0.4,1,0,1.4L102.4,27.1z M110.3,37.9l-9.3-9.3L89.8,39.7l9.3,9.3L110.3,37.9z M73.4,92.3l18.9-18.9l-4.9-2.8L70.6,87.4
			L73.4,92.3z M74.7,55.3l1.5-1.5l-1.9-1.9l-1.5,1.5L74.7,55.3z M78.3,97.6l19.4-19.3L94,74.6L74.6,94L78.3,97.6z M76.6,51.5l10,10
			l11.1-11.1l-9.3-9.3l-9.7,9.6c-0.4,0.4-1,0.4-1.4,0s-0.4-1,0-1.4l9.6-9.7l-9.3-9.3L66.5,41.4L76.6,51.5z M90.2,17.8L79.1,28.9
			l9.3,9.3l11.1-11.1L90.2,17.8z M53.8,76.1l1.5-1.4l-1.9-1.9l-1.5,1.5L53.8,76.1z M65.7,82.2l11.6-11.6c0,0,0,0,0,0
			c0.4-0.4,1-0.4,1.4,0c0.4,0.4,0.4,1,0,1.4L67.1,83.6l2.2,2.2l16.5-16.5l-2.2-2.2l-1.7,1.7c-0.4,0.4-1,0.4-1.4,0
			c-0.4-0.4-0.4-1,0-1.4l1.7-1.7L62.8,46.3L46.3,62.8L65.7,82.2z M36.4,111.6l-9.3-9.3l-10,10c0,0,0,0,0,0c-0.4,0.4-1,0.4-1.4,0
			s-0.4-1,0-1.4l10-10l-9.3-9.3L5.2,102.7l10,10l10,10L36.4,111.6z M38.2,88.3L28.9,79L17.7,90.2l9.3,9.3L38.2,88.3z M48.9,99.1
			l-9.3-9.3l-11.1,11.1l9.3,9.3L48.9,99.1z M51.3,76.5l-10-10L30.3,77.7l9.3,9.3l9.6-9.7c0.4-0.3,0.9-0.3,1.3,0
			c0.4,0.4,0.5,1,0.1,1.4L41,88.4l9.3,9.3l11.1-11.1L51.3,76.5z M44.9,61.4l16.5-16.5l-2.2-2.2L42.7,59.2L44.9,61.4z M3,103.4
			c-0.2-0.2-0.3-0.4-0.3-0.7c0-0.3,0.1-0.5,0.3-0.7l37.7-37.6c0.4-0.4,1-0.4,1.4,0l8.4,8.4l1.5-1.5L40.6,59.9c0,0,0,0,0,0
			c-0.4-0.4-0.4-1,0-1.4l17.9-17.9c0,0,0,0,0,0c0.4-0.4,1-0.4,1.4,0L71.3,52l1.5-1.5l-8.4-8.4c0,0,0,0,0,0c-0.4-0.4-0.4-1,0-1.4
			l12.3-12.3c0-0.1,0.1-0.2,0.2-0.3c0.1-0.1,0.2-0.1,0.3-0.2l12.1-12.1c0.1-0.2,0.2-0.4,0.5-0.5l12.3-12.4c0.4-0.4,1-0.4,1.4,0
			L125,24.6c0.4,0.4,0.4,1,0,1.4L87.3,63.6c-0.2,0.2-0.4,0.3-0.7,0.3c-0.3,0-0.5-0.1-0.7-0.3l-8.4-8.4l-1.5,1.5l11.8,11.9l6.4,3.7
			h0.1l0.1,0.1c0.1,0,0.1,0.1,0.1,0.1l5.1,5.1c0.4,0.4,0.4,1,0,1.4L78.9,99.7c-0.2,0.2-0.4,0.3-0.7,0.3c-0.3,0-0.5-0.1-0.7-0.3
			l-5.1-5.1c0,0-0.1-0.1-0.1-0.1l-0.1-0.1v-0.1l-3.7-6.4L56.7,76l-1.5,1.5l8.4,8.4c0,0,0,0,0,0c0.4,0.4,0.4,1,0,1.4L51.3,99.6
			c0,0.1-0.1,0.2-0.2,0.3c-0.1,0.1-0.2,0.1-0.3,0.2l-12.1,12.1c-0.1,0.2-0.2,0.4-0.5,0.5l-12.3,12.3c-0.2,0.2-0.4,0.3-0.7,0.3
			c-0.3,0-0.5-0.1-0.7-0.3L3,103.4z"/>
	</g>
	<g>
	</g>
</g>
<path d="M43.6,28.2c0.3-0.5,0.2-1.1-0.3-1.4c0,0,0,0,0,0c-5.5-3.6-12.8-2.2-16.5,3.3c-2.7,4-2.7,9.2,0,13.2c0.2,0.3,0.5,0.4,0.8,0.5
	c0.2,0,0.4-0.1,0.6-0.2c0.5-0.3,0.6-0.9,0.3-1.4c0,0,0,0,0,0c-3-4.5-1.8-10.7,2.7-13.7c3.3-2.2,7.7-2.2,11,0
	C42.7,28.8,43.3,28.7,43.6,28.2C43.6,28.2,43.6,28.2,43.6,28.2z"/>
<path d="M38.6,32.3c0.5,0.3,1.1,0.1,1.4-0.4c0.3-0.5,0.1-1.1-0.4-1.4c0,0,0,0-0.1,0c-3.3-1.7-7.3-0.3-9,3c-1,1.9-1,4.1,0,6
	c0.2,0.3,0.5,0.5,0.9,0.5c0.6,0,1-0.4,1-1c0-0.2,0-0.3-0.1-0.5c-1.2-2.3-0.2-5.1,2.1-6.3C35.7,31.6,37.2,31.6,38.6,32.3L38.6,32.3z"
	/>
</svg>
