<?xml version="1.0" encoding="utf-8"?>
<!-- Generator: Adobe Illustrator 22.1.0, SVG Export Plug-In . SVG Version: 6.00 Build 0)  -->
<svg version="1.1" id="Layer_1" xmlns="http://www.w3.org/2000/svg" xmlns:xlink="http://www.w3.org/1999/xlink" x="0px" y="0px"
	 viewBox="0 0 128 128" style="enable-background:new 0 0 128 128;" xml:space="preserve">
<style type="text/css">
	.st0{fill:#30AFC4;}
	.st1{fill:#E3C22F;}
	.st2{fill:#47535C;}
	.st3{fill:#1C6E8C;}
</style>
<title></title>
<g id="XMLID_1_">
	<g>
		<path class="st0" d="M87.1,87.5c-8.4,8.3-20.5,11.4-31.9,8.2c-11.3-3.2-20.1-12.2-22.9-23.6c8.8,3.7,17.8,6.8,26.9,9.4
			C68.4,84.1,77.7,86.1,87.1,87.5z"/>
		<path class="st0" d="M73.1,32.6c17.4,4.9,27.5,23,22.7,40.4c-0.4,1.4-0.9,2.8-1.5,4.1c-6.9-0.1-18.1-1.7-32.2-5.7
			c-9.2-2.5-18-5.8-26.6-9.9c-1.5-0.8-2.7-1.5-3.8-2.1c0.2-1.4,0.5-2.8,0.9-4.2C37.5,37.8,55.7,27.7,73.1,32.6L73.1,32.6z"/>
		<path d="M98.5,58.6c19.5,8.6,30.1,17.5,28.2,23.9c-1.3,4.8-9,6.8-19.8,6.8c-5.8-0.1-11.6-0.5-17.4-1.3c-6.5,7-15.7,11-25.3,11
			c-3.2,0-6.4-0.4-9.5-1.3c-12.6-3.5-22.1-13.8-24.6-26.5C12.1,63.2-0.8,54,1.2,47c1.8-6.3,15.4-8.4,36.6-5.5
			c5.3-6.2,12.7-10.4,20.8-11.7C77.6,26.7,95.5,39.6,98.5,58.6z M124.9,81.9c1.4-5-8.8-13.2-26-21c0.2,2.7,0.2,5.5-0.2,8.2
			c4,2.6,5.7,4.8,5.1,6.8c-0.6,2.3-4.2,3.2-9.3,3.2c-9,0-22.7-2.8-32.9-5.7c-9.3-2.5-18.3-5.9-27-10.1c-1.7-0.9-3.2-1.7-4.4-2.5
			c-4.4-2.8-6.4-5.3-5.8-7.3c0.6-2,3.2-3,7.9-3.1c1.1-2.5,2.5-4.9,4.1-7.1c-18.8-2.4-31.7-0.7-33.2,4.3s9.1,13.6,28,21.9
			c0.1,0,0.3,0.1,0.4,0.2c9.2,3.9,18.6,7.2,28.3,9.9c9.6,2.8,19.4,4.9,29.3,6.3c0.1,0,0.3,0,0.4,0.1C110,88.8,123.5,86.9,124.9,81.9
			z M101.8,75.4c0.2-0.7-0.7-2.1-3.6-4.1c-0.2,0.8-0.3,1.5-0.6,2.3c-0.4,1.2-0.8,2.4-1.2,3.5C99.7,77,101.5,76.4,101.8,75.4z
			 M95.7,73c4.9-17.4-5.3-35.5-22.7-40.4v0c-17.4-4.9-35.5,5.2-40.5,22.7c-0.4,1.4-0.7,2.8-0.9,4.2c1.1,0.6,2.3,1.3,3.8,2.1
			c8.5,4.1,17.4,7.4,26.6,9.9c14.1,4,25.3,5.6,32.2,5.7C94.8,75.8,95.3,74.4,95.7,73z M55.3,95.7c11.3,3.2,23.5,0.1,31.9-8.2
			c-9.4-1.4-18.7-3.5-27.8-6.1c-9.2-2.6-18.1-5.7-26.9-9.4C35.2,83.5,43.9,92.5,55.3,95.7z M30.7,54.7c0.2-0.8,0.5-1.5,0.7-2.3
			c-3.5,0.2-5,1-5.2,1.7c-0.2,0.6,0.6,2.1,3.7,4.2C30.1,57.1,30.4,55.9,30.7,54.7z"/>
		<path class="st1" d="M98.9,60.9c17.2,7.9,27.4,16,26,21c-1.4,5-14.9,6.9-35.3,4c-0.1,0-0.3-0.1-0.4-0.1
			c-9.9-1.5-19.7-3.6-29.3-6.3c-9.6-2.7-19.1-6-28.3-9.9c-0.1-0.1-0.2-0.1-0.4-0.2c-18.9-8.3-29.5-16.9-28-21.9s14.4-6.7,33.2-4.3
			c-1.6,2.2-3,4.6-4.1,7.1c-4.8,0.2-7.4,1.2-7.9,3.1c-0.6,2,1.4,4.5,5.8,7.3c1.3,0.8,2.8,1.6,4.4,2.5c8.7,4.2,17.7,7.6,27,10.1
			c10.2,2.9,23.9,5.7,32.9,5.7c5.1,0,8.6-0.9,9.3-3.2c0.6-2-1.1-4.2-5.1-6.8C99,66.3,99.1,63.6,98.9,60.9z"/>
	</g>
	<g>
	</g>
</g>
<path d="M89.2,64.6c0,0.6,0.4,1,1,1l0,0c0.6,0,1-0.4,1-1c0.2-8.4-3.5-16.4-10.1-21.7c-0.4-0.3-1.1-0.3-1.4,0.2
	c-0.3,0.4-0.3,1.1,0.2,1.4C85.9,49.3,89.3,56.8,89.2,64.6z"/>
<path d="M71,40c1,0.3,2,0.6,3,1c0.1,0.1,0.3,0.1,0.4,0.1c0.6,0,1-0.4,1-1c0-0.4-0.2-0.8-0.6-0.9c-1.1-0.5-2.1-0.8-3.2-1.2
	c-0.5-0.2-1.1,0.2-1.2,0.7c0,0,0,0,0,0C70.1,39.2,70.4,39.8,71,40C70.9,40,71,40,71,40z"/>
<path d="M19.7,45.7c-5.4,0.5-8.4,1.9-9.1,4.3c-0.1,0.5,0.2,1.1,0.7,1.2c0,0,0,0,0,0c0.1,0,0.2,0,0.3,0c0.5,0,0.9-0.3,1-0.7
	c0.4-1.4,3.1-2.5,7.4-2.8c0.6,0,1-0.5,0.9-1.1C20.8,46,20.3,45.6,19.7,45.7L19.7,45.7z"/>
<path d="M110.9,71.1c-0.5-0.3-1.1-0.2-1.4,0.2c-0.3,0.5-0.2,1.1,0.2,1.4c3.9,2.8,6,5.2,5.5,6.8c-0.6,2-6.1,3.8-19.7,2.5
	c-0.6-0.1-1,0.4-1.1,0.9s0.4,1,0.9,1.1c2.8,0.3,5.8,0.5,8.6,0.5c6.5,0,12.3-1,13.2-4.4C117.9,77.6,115.8,74.6,110.9,71.1z"/>
<path d="M31.6,34.6c-0.6,0-1,0.4-1.1,0.9c0,0.6,0.4,1,0.9,1.1c1.3,0.1,2.7,0.2,4.1,0.4h0.1c0.6,0,1-0.4,1.1-0.9s-0.4-1-0.9-1.1
	C34.4,34.9,33,34.7,31.6,34.6z"/>
<path d="M17.7,34.2c-0.6,0-1,0.5-1,1c0,0.6,0.5,1,1,1c2.4-0.1,4.9-0.1,7.6,0l0,0c0.6,0,1-0.4,1-1s-0.4-1-1-1
	C22.7,34.1,20.1,34.1,17.7,34.2z"/>
<path d="M24.5,74.5c0.6,0,1-0.5,1-1c0-0.4-0.2-0.7-0.6-0.9c-8.7-4.1-16-8.6-21.3-12.9c-0.4-0.4-1.1-0.3-1.4,0.1
	c-0.4,0.4-0.3,1.1,0.1,1.4c6.7,5.2,14,9.6,21.7,13.2C24.2,74.4,24.3,74.5,24.5,74.5z"/>
<path d="M102.5,94.5L102.5,94.5c0.6,0,1-0.4,1-1s-0.4-1-1-1c-2.4-0.1-4.9-0.3-7.4-0.5c-0.5-0.1-1,0.4-1.1,0.9c0,0,0,0,0,0
	c0,0.6,0.4,1,0.9,1.1c0,0,0.1,0,0.1,0C97.5,94.2,100.1,94.4,102.5,94.5z"/>
<path d="M123.7,90.8c-5.1,1.3-10.4,1.9-15.7,1.8c-0.6,0-1,0.4-1,1s0.4,1,1,1l0,0c5.5,0.1,10.9-0.6,16.2-1.9c0.5-0.1,0.8-0.7,0.7-1.2
	C124.8,91,124.3,90.7,123.7,90.8L123.7,90.8L123.7,90.8z"/>
<path d="M102.7,56c4.7,2.2,9.4,4.7,13.8,7.5c0.2,0.1,0.3,0.2,0.5,0.2c0.6,0,1-0.4,1-1c0-0.3-0.2-0.7-0.5-0.9
	c-4.5-2.8-9.2-5.3-14-7.6c-0.5-0.2-1.1,0-1.3,0.5C102.1,55.2,102.3,55.8,102.7,56z"/>
<g id="XMLID_2_">
	<g>
		<path class="st2" d="M114,43.2c0.5,0.9,0.6,1.9,0.3,2.8c-0.5,1.7-2,2.7-3.6,2.7c-0.3,0-0.7-0.1-1-0.1c-2-0.6-3.2-2.6-2.6-4.6
			c0.3-1,0.9-1.8,1.8-2.3h0c0.6-0.3,1.2-0.5,1.8-0.5c0.3,0,0.7,0,1,0.2C112.7,41.6,113.5,42.3,114,43.2z"/>
		<path d="M114.3,46c0.3-1,0.2-2-0.3-2.8c-0.5-0.9-1.3-1.5-2.3-1.8c-0.3-0.1-0.7-0.2-1-0.2c-0.6,0-1.3,0.2-1.8,0.5h0
			c-0.9,0.5-1.5,1.3-1.8,2.3c-0.6,2,0.6,4.1,2.6,4.6c0.3,0.1,0.7,0.1,1,0.1C112.4,48.7,113.9,47.7,114.3,46z M116.5,44.9
			c0,3.2-2.6,5.8-5.7,5.8c-0.5,0-1-0.1-1.6-0.2h0c-3.1-0.9-4.8-4-4-7.1c0.4-1.5,1.4-2.7,2.7-3.4c0,0,0,0,0,0
			c2.8-1.6,6.3-0.6,7.8,2.2C116.2,43,116.5,44,116.5,44.9z"/>
	</g>
	<g>
	</g>
</g>
<g id="XMLID_3_">
	<g>
		<path class="st3" d="M99.4,31.1c0.1,0,0.2,0,0.3,0c0.5,0.1,0.8,0.7,0.7,1.2c-0.2,0.5-0.7,0.8-1.2,0.7c-0.5-0.2-0.8-0.7-0.7-1.2
			l0,0C98.5,31.4,98.9,31.1,99.4,31.1z"/>
		<path d="M96.4,31.3c0.4-1.6,2.1-2.5,3.7-2.1c1.6,0.5,2.5,2.1,2.1,3.7c-0.2,0.8-0.7,1.4-1.4,1.8c-0.5,0.2-1,0.4-1.5,0.4
			c-0.3,0-0.6,0-0.8-0.1C96.9,34.5,96,32.9,96.4,31.3z M99.1,33c0.5,0.1,1.1-0.2,1.2-0.7c0.2-0.5-0.2-1.1-0.7-1.2
			c-0.1,0-0.2,0-0.3,0c-0.5,0-0.9,0.3-1,0.7l0,0C98.2,32.3,98.6,32.9,99.1,33z"/>
	</g>
	<g>
	</g>
</g>
</svg>
