<?xml version="1.0" encoding="utf-8"?>
<!-- Generator: Adobe Illustrator 22.1.0, SVG Export Plug-In . SVG Version: 6.00 Build 0)  -->
<svg version="1.1" id="Layer_1" xmlns="http://www.w3.org/2000/svg" xmlns:xlink="http://www.w3.org/1999/xlink" x="0px" y="0px"
	 viewBox="0 0 128 128" style="enable-background:new 0 0 128 128;" xml:space="preserve">
<style type="text/css">
	.st0{fill:#4F5151;}
	.st1{fill:#7A8589;}
	.st2{fill:#4FADDB;}
	.st3{fill:#1BDB43;}
	.st4{fill:#B27E52;}
</style>
<title></title>
<g id="XMLID_2_">
	<g>
		<path class="st0" d="M106.2,66.3c-2.7,3.3-18.2,7.3-42.2,7.3s-39.4-4-42.2-7.3c11.7,2.7,27.1,4.2,42.2,4.2S94.4,69.1,106.2,66.3z"
			/>
		<path class="st0" d="M33.2,28.4c0-1,1.5-2.5,5.8-3.9c-0.3,1.5-0.4,3.1-0.4,4.7v2.9C35.1,30.9,33.2,29.5,33.2,28.4z"/>
		<path class="st0" d="M94.8,28.4c0,1.2-1.9,2.5-5.3,3.7v-2.9c0-1.6-0.1-3.2-0.4-4.7C93.2,25.9,94.8,27.4,94.8,28.4z"/>
		<path class="st1" d="M94.8,31.6v14.1c0,2.9-11.7,7-30.8,7s-30.8-4.1-30.8-7V31.6c4.9,3.7,18.2,5.7,30.8,5.7S89.8,35.3,94.8,31.6z"
			/>
		<path class="st1" d="M124.8,54c0,7-24.4,14.5-60.8,14.5S3.2,61,3.2,54c0-4.7,11-9.4,28-12.1v3.8c0,5.8,16.9,9,32.8,9
			s32.8-3.1,32.8-9v-3.8C113.8,44.6,124.8,49.3,124.8,54z"/>
		<path class="st2" d="M87.4,29.2v3.4c-2.6,0.8-6,1.4-9.9,1.9c-3.9,0.5-8.5,0.8-13.5,0.8c-10.1,0-18.1-1.1-23.5-2.6v-3.5
			C40.6,16.3,51,5.8,64,5.8C76.9,5.8,87.4,16.3,87.4,29.2z"/>
		<path d="M89.4,32.1c3.5-1.2,5.3-2.5,5.3-3.7c0-1-1.5-2.5-5.8-3.9c0.3,1.5,0.4,3.1,0.4,4.7V32.1z M38.6,29.2c0-1.6,0.1-3.2,0.4-4.7
			c-4.2,1.4-5.8,2.9-5.8,3.9c0,1.2,1.9,2.5,5.3,3.7V29.2z M64,5.8c-13,0-23.4,10.5-23.5,23.5v3.5c5.3,1.5,13.4,2.6,23.5,2.6
			c5.1,0,9.6-0.3,13.5-0.8c3.9-0.5,7.3-1.1,9.9-1.9v-3.4C87.4,16.3,76.9,5.8,64,5.8z M94.8,31.6c-4.9,3.7-18.1,5.7-30.8,5.7
			s-25.8-2-30.8-5.7v14.1c0,2.9,11.7,7,30.8,7s30.8-4.1,30.8-7V31.6z M21.9,66.3c2.7,3.3,18.2,7.3,42.2,7.3s39.4-4,42.2-7.3
			c-11.7,2.7-27.1,4.2-42.2,4.2S33.6,69.1,21.9,66.3z M64,75.7c-21.1,0-43.5-3.5-44.5-9.9C8.5,63,1.2,59,1.2,54
			c0-8.5,20.5-12.7,30-14.1V28.8c0,0,0-0.1,0-0.1c0-0.1,0-0.2,0-0.3c0-2.4,2.8-4.5,8.3-6.1c2.4-8.5,9-15.1,17.5-17.5
			c13.5-3.8,27.6,4,31.4,17.5c5.5,1.6,8.3,3.7,8.3,6.1c0,0.1,0,0.2,0,0.3c0,0,0,0.1,0,0.1v11.1c9.5,1.5,30,5.7,30,14.1
			c0,4.9-7.3,8.9-18.3,11.7C107.6,72.2,85.1,75.7,64,75.7z M64,54.8c-15.9,0-32.8-3.2-32.8-9v-3.8c-17,2.7-28,7.4-28,12.1
			c0,7,24.4,14.5,60.8,14.5S124.8,61,124.8,54c0-4.7-11-9.4-28-12.1v3.8C96.8,51.6,79.9,54.8,64,54.8z"/>
	</g>
	<g>
	</g>
</g>
<path d="M64,12.7c1.9,0,3.9,0.3,5.7,1c0.1,0,0.2,0.1,0.3,0.1c0.6,0,1-0.4,1-1c0-0.4-0.3-0.8-0.7-0.9c-2-0.7-4.2-1.1-6.4-1.1
	c-0.6,0-1,0.4-1,1S63.4,12.7,64,12.7z"/>
<path d="M46.8,24.8c0.1,0,0.2,0.1,0.3,0.1c0.4,0,0.9-0.3,1-0.7c1.7-5,5.6-8.9,10.6-10.6c0.5-0.2,0.8-0.7,0.6-1.3s-0.7-0.8-1.3-0.6
	c-5.6,1.9-10,6.3-12,11.9C46,24,46.3,24.6,46.8,24.8z"/>
<g id="XMLID_3_">
	<g>
		<circle class="st3" cx="64" cy="44.6" r="1.2"/>
		<path d="M64,45.8c0.7,0,1.2-0.6,1.2-1.2s-0.6-1.2-1.2-1.2c-0.7,0-1.2,0.6-1.2,1.2S63.3,45.8,64,45.8z M64,41.3
			c1.8,0,3.2,1.5,3.2,3.2s-1.5,3.2-3.2,3.2c-1.8,0-3.2-1.5-3.2-3.2C60.8,42.8,62.2,41.3,64,41.3z"/>
	</g>
	<g>
	</g>
</g>
<g id="XMLID_4_">
	<g>
		<circle class="st3" cx="82.3" cy="42.5" r="1.2"/>
		<path d="M82.3,43.8c0.7,0,1.2-0.6,1.2-1.2s-0.6-1.2-1.2-1.2c-0.7,0-1.2,0.6-1.2,1.2S81.7,43.8,82.3,43.8z M82.3,39.2
			c1.8,0,3.2,1.5,3.2,3.2s-1.5,3.2-3.2,3.2c-1.8,0-3.2-1.5-3.2-3.2C79.1,40.7,80.6,39.2,82.3,39.2z"/>
	</g>
	<g>
	</g>
</g>
<g id="XMLID_5_">
	<g>
		<circle class="st3" cx="45.7" cy="42.5" r="1.2"/>
		<path d="M45.7,43.8c0.7,0,1.2-0.6,1.2-1.2s-0.6-1.2-1.2-1.2s-1.2,0.6-1.2,1.2S45,43.8,45.7,43.8z M45.7,39.2
			c1.8,0,3.2,1.5,3.2,3.2s-1.5,3.2-3.2,3.2c-1.8,0-3.2-1.5-3.2-3.2C42.4,40.7,43.9,39.2,45.7,39.2z"/>
	</g>
	<g>
	</g>
</g>
<path d="M31.2,58.5c-9.5-2.1-12.9-4.5-12.9-6.2c0-0.6-0.4-1-1-1s-1,0.4-1,1c0,3.3,4.9,6,14.5,8.1c0.1,0,0.1,0,0.2,0
	c0.6,0.1,1-0.3,1.1-0.9S31.8,58.6,31.2,58.5L31.2,58.5z"/>
<path d="M104.8,46.4c-0.5-0.2-1.1,0-1.3,0.5s0,1.1,0.5,1.3c0,0,0.1,0,0.1,0c3.5,1.3,5.5,2.8,5.5,4.1c0,4.3-18.8,9.1-45.7,9.1
	c-0.6,0-1,0.4-1,1s0.4,1,1,1c23.1,0,47.7-3.9,47.7-11.1C111.7,50.1,109.4,48.1,104.8,46.4z"/>
<path d="M36.2,104.2l-6.2,13.2c-0.2,0.5,0,1.1,0.5,1.3c0.1,0.1,0.3,0.1,0.4,0.1c0.4,0,0.7-0.2,0.9-0.6l6.3-13.3
	c0.2-0.5,0-1.1-0.5-1.3C37,103.6,36.4,103.8,36.2,104.2L36.2,104.2z"/>
<path d="M48,81.4c-0.5-0.2-1.1,0-1.3,0.5l-2.3,4.9c-0.2,0.5,0,1.1,0.5,1.3c0.1,0.1,0.3,0.1,0.4,0.1c0.4,0,0.7-0.2,0.9-0.6l2.3-4.9
	C48.7,82.2,48.5,81.6,48,81.4z"/>
<path d="M91.4,105.7c-0.5,0.2-0.7,0.8-0.5,1.3c0,0,0,0,0,0l5.4,11.4c0.2,0.3,0.5,0.6,0.9,0.6c0.1,0,0.3,0,0.4-0.1
	c0.5-0.2,0.7-0.8,0.5-1.3l-5.4-11.4C92.5,105.6,91.9,105.4,91.4,105.7z"/>
<path d="M84.7,92.5c0.1,0,0.3,0,0.4-0.1c0.5-0.2,0.7-0.8,0.5-1.3l-4.4-9.2c-0.2-0.5-0.8-0.7-1.3-0.5c-0.5,0.2-0.7,0.8-0.5,1.3
	l4.4,9.3C84,92.3,84.4,92.5,84.7,92.5z"/>
<path d="M38.5,80c-0.5-0.3-1.1-0.2-1.4,0.3c0,0,0,0,0,0l-26.7,42.4c-0.3,0.5-0.2,1.1,0.3,1.4c0,0,0,0,0,0c0.2,0.1,0.3,0.2,0.5,0.2
	c0.3,0,0.7-0.2,0.8-0.5l26.7-42.4C39.1,80.9,38.9,80.3,38.5,80C38.5,80,38.5,80,38.5,80z"/>
<path d="M116.8,124.2c0.2,0,0.4,0,0.5-0.2c0.5-0.3,0.6-0.9,0.3-1.4c0,0,0,0,0,0L90.9,80.3c-0.3-0.5-0.9-0.6-1.4-0.3c0,0,0,0,0,0
	c-0.5,0.3-0.6,0.9-0.3,1.4c0,0,0,0,0,0l26.8,42.4C116.2,124,116.5,124.2,116.8,124.2z"/>
<g id="XMLID_1_">
	<g>
		<path class="st4" d="M60.9,98.9v4.1c0,2.6-2.1,4.7-4.7,4.7c0,0-0.1,0-0.1,0c-2.6-0.2-4.6-2.4-4.6-5v-3.8c0-0.6-0.5-1-1-1
			c-0.9,0-1.6-0.6-1.9-1.5h15.2c-0.2,0.9-1,1.5-1.9,1.5C61.3,97.9,60.9,98.4,60.9,98.9z"/>
		<path class="st4" d="M79.5,106.2V119h-0.6l-4.8-6c-0.2-0.2-0.5-0.4-0.8-0.4h-12c-0.4,0-0.8,0.2-0.9,0.6l-2.5,5.8h-1.3v-9.3
			c3.6-0.2,6.4-3.1,6.4-6.7v-1l12.4,0.1C77.6,102.1,79.5,103.9,79.5,106.2z"/>
		<path d="M62.9,102v1c0,3.6-2.8,6.5-6.4,6.7v9.3h1.3l2.5-5.8c0.2-0.4,0.5-0.6,0.9-0.6h12c0.3,0,0.6,0.1,0.8,0.4l4.8,6h0.6v-12.8
			c0-2.3-1.9-4.2-4.2-4.2L62.9,102z M50.4,97.9c0.5,0,1,0.4,1,1v3.8c-0.1,2.6,2,4.8,4.6,5c0,0,0.1,0,0.1,0c2.6,0,4.7-2.1,4.7-4.7
			v-4.1c0-0.6,0.5-1,1-1c0.9,0,1.6-0.6,1.9-1.5H48.5C48.8,97.3,49.5,97.9,50.4,97.9z M54.5,109.6c-3-0.9-5.1-3.6-5.1-6.8v-3
			c-1.7-0.5-2.9-2-2.9-3.8v-0.5c0-0.6,0.5-1,1-1h2.6c-0.4-0.6-0.7-1.3-0.8-2.1c-0.1-0.5,0.4-1,0.9-1.1c0.6,0,1,0.4,1.1,0.9
			c0.1,1,0.8,1.8,1.8,2.2h6.1c0.9-0.4,1.6-1.2,1.8-2.2c0-0.6,0.5-1,1.1-0.9c0.6,0,1,0.5,0.9,1.1c-0.1,0.7-0.3,1.5-0.8,2.1h2.6
			c0.6,0,1,0.4,1,1V96c0,1.8-1.2,3.3-2.9,3.8v0.2h12.4c1.4,0,2.7,0.5,3.8,1.3c0.8-1,2-1.7,3.3-1.8c0.6-0.1,1.1,0.3,1.1,0.9
			c0.1,0.6-0.3,1.1-0.9,1.1c-0.9,0.1-1.7,0.6-2.2,1.4c0.6,1,1,2.1,1,3.3v13.8c0,0.5-0.4,1-1,1h-2.1c-0.3,0-0.6-0.1-0.8-0.4l-4.8-6
			H61.9l-2.5,5.7c-0.2,0.4-0.5,0.6-0.9,0.6h-3c-0.5,0-1-0.4-1-1V109.6z"/>
	</g>
	<g>
	</g>
</g>
<path d="M53.3,101.7c0.1,0.1,0.3,0.1,0.4,0.1c0.6,0,1-0.5,1-1c0-0.3-0.1-0.5-0.3-0.7c-0.4-0.4-1-0.4-1.4,0c0,0,0,0,0,0
	c-0.4,0.4-0.4,1,0,1.4c0,0,0,0,0,0C53.1,101.5,53.2,101.6,53.3,101.7z"/>
<path d="M57.7,101.7c0.1,0.1,0.2,0.1,0.4,0.1c0.3,0,0.5-0.1,0.7-0.3c0.2-0.2,0.3-0.4,0.3-0.7c0-0.1,0-0.1,0-0.2c0-0.1,0-0.1,0-0.2
	c0-0.1-0.1-0.1-0.1-0.2c0-0.1-0.1-0.1-0.1-0.2c-0.3-0.3-0.7-0.4-1.1-0.2c-0.1,0.1-0.2,0.1-0.3,0.2c-0.4,0.4-0.4,1,0,1.4c0,0,0,0,0,0
	C57.5,101.5,57.6,101.6,57.7,101.7z"/>
</svg>
